<?xml version="1.0" encoding="utf-8"?>
<!-- Generator: Adobe Illustrator 27.5.0, SVG Export Plug-In . SVG Version: 6.00 Build 0)  -->
<svg version="1.1" xmlns="http://www.w3.org/2000/svg" xmlns:xlink="http://www.w3.org/1999/xlink" x="0px" y="0px"
	 viewBox="0 0 750 500" style="enable-background:new 0 0 750 500;" xml:space="preserve">
<g id="BACKGROUND">
	<rect style="fill:#FFFFFF;" width="750" height="500"/>
</g>
<g id="OBJECTS">
	<g>
		<g>
			<defs>
				<rect id="SVGID_1_" width="750" height="500"/>
			</defs>
			<clipPath id="SVGID_00000034775957541250533460000002918417805701705617_">
				<use xlink:href="#SVGID_1_"  style="overflow:visible;"/>
			</clipPath>
			<g style="clip-path:url(#SVGID_00000034775957541250533460000002918417805701705617_);">
				<g>
					<g>
						<g>
							<path style="fill:#D8E2E5;" d="M250.878,27.364L31.944,253.488h79v148.695h279.868V253.488h79L250.878,27.364z
								 M169.739,380.617h-26.658v-25.224h26.658V380.617z M169.739,350.229h-26.658v-25.224h26.658V350.229z M169.739,319.842
								h-26.658v-25.224h26.658V319.842z M169.739,289.455h-26.658v-25.224h26.658V289.455z M203.738,380.617H177.08v-25.224h26.658
								V380.617z M203.738,350.229H177.08v-25.224h26.658V350.229z M203.738,319.842H177.08v-25.224h26.658V319.842z
								 M203.738,289.455H177.08v-25.224h26.658V289.455z"/>
							<path style="fill:#D8E2E5;" d="M552.741,309.775h45.69v85.999h161.864v-85.999h45.69L679.364,178.994L552.741,309.775z
								 M726.291,368.712h15.418v14.589h-15.418V368.712z M726.291,351.137h15.418v14.589h-15.418V351.137z M726.291,333.563h15.418
								v14.589h-15.418V333.563z M726.291,315.988h15.418v14.589h-15.418V315.988z M706.628,368.712h15.418v14.589h-15.418V368.712z
								 M706.628,351.137h15.418v14.589h-15.418V351.137z M706.628,333.563h15.418v14.589h-15.418V333.563z M706.628,315.988h15.418
								v14.589h-15.418V315.988z"/>
							<rect x="116.23" y="70.992" style="fill:#D8E2E5;" width="53.316" height="112.108"/>
							<rect x="107.731" y="63.616" style="fill:#D8E2E5;" width="67.611" height="12.686"/>
						</g>
						<path style="fill:#D8E2E5;" d="M64.5,398c0,0-12-8-20.5-36.5s2.5-37.591,7.5-50.796c5-13.204,4.5-31.67,6-42.187
							C59,258,70,250.248,82.5,263.124s4,51.275,7.5,64.075c3.5,12.801,9.5,29.389,0,41.845C80.5,381.5,78.5,398,78.5,398H64.5z"/>
						<path style="fill:#D8E2E5;" d="M425.444,398c0,0-8.637-5.758-14.754-26.27c-6.118-20.512,1.799-27.055,5.398-36.559
							c3.599-9.504,3.239-22.794,4.318-30.363c1.08-7.569,8.996-13.149,17.993-3.882c8.997,9.267,2.879,36.903,5.398,46.117
							c2.519,9.213,6.837,21.152,0,30.117S435.52,398,435.52,398H425.444z"/>
					</g>
					<rect y="392.961" style="fill:#C2D0D3;" width="750" height="107.039"/>
				</g>
				<g>
					<g>
						<g>
							<path style="fill:#B0C3C6;" d="M561.741,421.701c0,2.456-12.747,4.447-28.471,4.447s-28.471-1.991-28.471-4.447
								s12.747-4.446,28.471-4.446S561.741,419.246,561.741,421.701z"/>
							<ellipse style="fill:#B0C3C6;" cx="208.37" cy="433.812" rx="41.063" ry="7.752"/>
							<ellipse style="fill:#B0C3C6;" cx="354.694" cy="431.336" rx="55.346" ry="7.752"/>
							<ellipse style="fill:#B0C3C6;" cx="451.798" cy="431.336" rx="55.346" ry="7.752"/>
							<ellipse style="fill:#B0C3C6;" cx="512.557" cy="417.255" rx="55.346" ry="7.752"/>
							<ellipse style="fill:#B0C3C6;" cx="596.568" cy="412.602" rx="71.646" ry="7.752"/>
						</g>
						<g>
							<rect x="471.248" y="174.479" style="fill:#7C7C7C;" width="124.045" height="196.355"/>
							<rect x="488.987" y="174.479" style="fill:#6D6D6D;" width="88.984" height="196.355"/>
							<g>
								<rect x="466.856" y="170.087" style="fill:#BFBFBF;" width="8.784" height="219"/>
								
									<rect x="528.879" y="108.064" transform="matrix(-1.836970e-16 1 -1 -1.836970e-16 707.7495 -358.7917)" style="fill:#BFBFBF;" width="8.784" height="132.829"/>
								
									<rect x="528.879" y="172.922" transform="matrix(-1.836970e-16 1 -1 -1.836970e-16 772.6068 -293.9344)" style="fill:#BFBFBF;" width="8.784" height="132.829"/>
								
									<rect x="528.879" y="237.779" transform="matrix(-1.836970e-16 1 -1 -1.836970e-16 837.4641 -229.0771)" style="fill:#BFBFBF;" width="8.784" height="132.829"/>
								
									<rect x="528.879" y="302.636" transform="matrix(-1.836970e-16 1 -1 -1.836970e-16 902.3214 -164.2198)" style="fill:#BFBFBF;" width="8.784" height="132.829"/>
								<rect x="590.901" y="170.087" style="fill:#BFBFBF;" width="8.784" height="219"/>
							</g>
						</g>
						<g>
							<rect x="566.585" y="270.482" style="fill:#685137;" width="2.635" height="126.427"/>
							<polygon style="fill:#8362B2;" points="591.23,274.909 544.575,274.909 552.925,231.524 581.1,231.524 							"/>
							<polygon style="fill:#987BC6;" points="581.1,231.524 571.115,231.524 575.47,274.909 591.23,274.909 							"/>
						</g>
						<g>
							<g>
								<polygon style="fill:#685137;" points="470.216,400.871 465.003,415.901 461.527,415.901 464.389,400.871 								"/>
								<polygon style="fill:#685137;" points="645.031,400.871 650.244,415.901 653.72,415.901 650.858,400.871 								"/>
							</g>
							<g>
								<rect x="493.12" y="319.78" style="fill:#A80404;" width="130.972" height="54.895"/>
								<path style="fill:#ED2424;" d="M493.12,319.78v54.895h63.603v-48.912c0-3.304-3.06-5.982-6.835-5.982H493.12z"/>
								<path style="fill:#ED2424;" d="M624.092,319.78H564.11c-3.04,0-5.504,2.143-5.504,4.786v50.109h65.486V319.78z"/>
								<g>
									<g>
										<path style="fill:#ED2424;" d="M469.545,404.444h-10.446c-2.368,0-4.288-1.92-4.288-4.288v-38.1
											c0-1.077,0.873-1.95,1.95-1.95h12.785V404.444z"/>
										<path style="fill:#ED2424;" d="M490.173,358.558h-13.752l2.696-40.126c0.095-1.416,1.458-2.523,3.108-2.523h8.93
											L490.173,358.558z"/>
										<path style="fill:#ED2424;" d="M469.545,404.444h-10.674c-2.243,0-4.061-1.818-4.061-4.061V363.18
											c0-1.698,1.376-3.074,3.074-3.074h11.66V404.444z"/>
										<polygon style="fill:#ED2424;" points="490.173,358.558 476.421,358.558 456.591,360.177 469.545,360.106 										"/>
										<polygon style="fill:#A80404;" points="469.545,404.444 493.365,401.7 495.084,319.78 491.155,315.909 490.173,358.558 
											469.545,360.106 										"/>
									</g>
									<g>
										<path style="fill:#ED2424;" d="M645.702,404.444h10.882c2.127,0,3.852-1.725,3.852-3.852v-37.905
											c0-1.425-1.155-2.581-2.581-2.581h-12.154V404.444z"/>
										<path style="fill:#ED2424;" d="M625.074,358.558h13.752l-2.695-40.126c-0.095-1.416-1.459-2.523-3.108-2.523h-8.931
											L625.074,358.558z"/>
										<path style="fill:#ED2424;" d="M645.702,404.444h6.423c4.59,0,8.311-3.721,8.311-8.311v-34.224
											c0-0.996-0.807-1.803-1.803-1.803h-12.932V404.444z"/>
										<polygon style="fill:#ED2424;" points="625.074,358.558 638.826,358.558 658.881,360.106 645.702,360.106 										"/>
										<polygon style="fill:#A80404;" points="645.702,404.444 621.882,401.7 620.163,319.78 624.092,315.909 625.074,358.558 
											645.702,360.106 										"/>
									</g>
								</g>
								<rect x="469.545" y="389.947" style="fill:#ED2424;" width="176.157" height="14.498"/>
								<rect x="469.545" y="375.449" style="fill:#A80404;" width="176.157" height="14.498"/>
								<polygon style="fill:#BF140C;" points="644.884,375.449 470.363,375.449 494.011,371.648 621.309,371.648 								"/>
								<g>
									<rect x="470.363" y="375.449" style="fill:#ED2424;" width="86.523" height="13.689"/>
									<rect x="558.606" y="375.449" style="fill:#ED2424;" width="86.278" height="13.689"/>
								</g>
							</g>
						</g>
						<g>
							<rect x="592.119" y="357.481" style="fill:#545454;" width="14.579" height="13.27"/>
							<polygon style="fill:#B7B7B7;" points="606.697,357.481 592.119,357.481 592.119,368.049 606.697,365.587 							"/>
							<g>
								<path style="fill:#E2CEBF;" d="M632.57,364.021l-66.312,4.891c-1.079,0-11.103,0.216-11.103-0.863l9.137-45.549
									c0-1.079,0.875-1.955,1.955-1.955h66.323c1.08,0,1.955,0.875,1.955,1.955v39.567
									C634.524,363.146,633.649,364.021,632.57,364.021z"/>
								<path style="fill:#7C7C7C;" d="M632.57,364.021h-66.323c-1.08,0-1.955-0.875-1.955-1.955V322.5
									c0-1.079,0.875-1.955,1.955-1.955h66.323c1.08,0,1.955,0.875,1.955,1.955v39.567
									C634.524,363.146,633.649,364.021,632.57,364.021z"/>
								<rect x="566.44" y="323.727" style="fill:#545454;" width="66.294" height="36.483"/>
								<polygon style="fill:#6D6D6D;" points="616.303,360.21 585.415,323.727 582.717,323.727 613.804,360.21 								"/>
								<polygon style="fill:#6D6D6D;" points="612.406,323.727 608.537,323.727 632.734,352.401 632.734,347.838 								"/>
								<polygon style="fill:#6D6D6D;" points="601.284,323.727 590.263,323.727 620.941,360.21 632.042,360.21 								"/>
								<polygon style="fill:#B7B7B7;" points="567.105,324.597 632.734,324.597 632.734,323.727 566.44,323.727 566.44,360.21 
									567.105,360.21 								"/>
							</g>
							<path style="fill:#7C7C7C;" d="M617.286,373.426H581.53l0,0c0-2.148,1.741-3.889,3.889-3.889h27.979
								C615.545,369.537,617.286,371.278,617.286,373.426L617.286,373.426z"/>
						</g>
						<g>
							<g>
								<g>
									<polygon style="fill:#EF9754;" points="484.814,286.811 506.972,288.021 506.972,262.983 484.814,264.628 									"/>
									<polygon style="fill:#F6AA6A;" points="506.94,288.021 529.098,286.811 529.098,264.628 506.94,262.983 									"/>
								</g>
								<polygon style="fill:#FFD188;" points="519.772,287.32 516.678,287.489 516.678,263.706 519.772,263.936 								"/>
								<polygon style="fill:#F9C273;" points="495.305,287.384 492.21,287.215 492.21,264.079 495.305,263.849 								"/>
								<polygon style="fill:#FFD188;" points="506.94,277.627 529.179,277.627 529.179,273.304 506.94,272.787 								"/>
								<polygon style="fill:#F9C273;" points="506.94,277.627 484.733,277.627 484.733,273.304 506.94,272.787 								"/>
							</g>
							<g>
								<g>
									<polygon style="fill:#EF9754;" points="482.279,309.197 514.045,310.407 514.045,285.368 482.279,287.014 									"/>
									<polygon style="fill:#F6AA6A;" points="514,310.407 545.766,309.197 545.766,287.014 514,285.368 									"/>
								</g>
								<polygon style="fill:#FFD188;" points="532.397,309.706 527.96,309.875 527.96,286.091 532.397,286.321 								"/>
								<polygon style="fill:#F9C273;" points="497.319,309.77 492.882,309.601 492.882,286.465 497.319,286.235 								"/>
								<polygon style="fill:#FFD188;" points="514,300.013 545.883,300.013 545.883,295.69 514,295.173 								"/>
								<polygon style="fill:#F9C273;" points="514,300.013 482.163,300.013 482.163,295.69 514,295.173 								"/>
							</g>
							<g>
								<polygon style="fill:#F6AA6A;" points="494.373,418.767 545.376,415.225 545.376,343.091 494.373,340.211 								"/>
								<polygon style="fill:#F2E3D6;" points="494.373,340.211 545.376,343.091 545.376,365.905 494.373,346.625 								"/>
								<polygon style="fill:#FFD188;" points="518.919,341.597 525.596,341.974 525.596,416.599 518.919,417.062 								"/>
								<polygon style="fill:#EF9754;" points="494.373,418.767 464.132,415.225 464.132,342.437 494.373,340.211 								"/>
								<polygon style="fill:#F9C273;" points="479.645,341.295 479.645,417.042 473.165,416.283 473.165,341.772 								"/>
							</g>
							<g>
								<g>
									<polygon style="fill:#EF9754;" points="444.355,343.106 493.1,344.963 493.1,306.543 444.355,309.068 									"/>
									<polygon style="fill:#F6AA6A;" points="493.029,344.963 541.774,343.106 541.774,309.068 493.029,306.543 									"/>
								</g>
								<polygon style="fill:#FFD188;" points="521.259,343.888 514.451,344.147 514.451,307.652 521.259,308.005 								"/>
								<polygon style="fill:#E8D0BF;" points="467.433,343.985 460.625,343.726 460.625,308.225 467.433,307.872 								"/>
								<polygon style="fill:#FFD188;" points="493.029,329.014 541.953,329.014 541.953,322.38 493.029,321.587 								"/>
								<polygon style="fill:#F9C273;" points="493.029,329.014 444.176,329.014 444.176,322.38 493.029,321.587 								"/>
							</g>
						</g>
						<g>
							<g>
								<g>
									<path style="fill:#EE7552;" d="M553.846,395.781l-12.807,0.516l-12.806-0.516c0,0-2.518,8.802,2.858,25.181
										c0,0.954,4.449,1.727,9.936,1.727c5.488,0,9.936-0.773,9.936-1.727c0.008,0,0.016,0,0.023,0
										C556.364,404.583,553.846,395.781,553.846,395.781z"/>
									<ellipse style="fill:#FF886C;" cx="541.027" cy="395.781" rx="12.795" ry="2.223"/>
									<path style="fill:#5B4B3C;" d="M551.882,395.474c0,0.872-4.86,1.578-10.855,1.578c-5.995,0-10.855-0.707-10.855-1.578
										c0-0.872,4.86-1.578,10.855-1.578C547.023,393.895,551.882,394.602,551.882,395.474z"/>
								</g>
								<g>
									<defs>
										<path id="SVGID_00000081625529646526522520000008021830113485640378_" d="M551.882,395.474
											c0,0.872-4.86,1.578-10.855,1.578c-5.995,0-10.855-0.707-10.855-1.578c0-0.107-47.814-26.768-47.674-26.87
											c0.999-0.722,4.741-61.614,45.264-61.614c72.248-0.001,65.706,68.684,67.076,69.327
											C595.152,376.465,551.882,395.311,551.882,395.474z"/>
									</defs>
									<clipPath id="SVGID_00000067217579087300334050000015342221938976966279_">
										<use xlink:href="#SVGID_00000081625529646526522520000008021830113485640378_"  style="overflow:visible;"/>
									</clipPath>
									<g style="clip-path:url(#SVGID_00000067217579087300334050000015342221938976966279_);">
										<g>
											<path style="fill:#4A6118;" d="M540.581,397.243c12.553-22.275,17.132-33.538,22.619-64.405
												c-22.602,11.379-24.736,52.871-24.888,64.355C539.068,397.216,539.824,397.231,540.581,397.243z"/>
											<path style="fill:#5B721D;" d="M539.396,397.218c5.389-20.201,7.959-34.054,23.803-64.38
												c-22.602,11.379-24.736,52.871-24.888,64.355C538.673,397.204,539.035,397.21,539.396,397.218z"/>
										</g>
										<g>
											<path style="fill:#4A6118;" d="M540.632,397.244c-4.137-11.41-17.661-43.646-39.388-46.803
												c12.92,23.76,20.045,32.503,35.503,46.688C538.04,397.189,539.335,397.223,540.632,397.244z"/>
											<path style="fill:#5B721D;" d="M540.632,397.244c-4.137-11.41-17.661-43.646-39.388-46.803
												c21.489,20.722,28.037,31.86,37.792,46.769C539.567,397.222,540.099,397.235,540.632,397.244z"/>
										</g>
										<g>
											<path style="fill:#4A6118;" d="M542.606,397.273c0.022,0,0.044-0.001,0.066-0.001
												c4.929-31.003-3.32-75.783-13.908-87.119c-4.495,48.601,7.346,78.026,11.783,87.09
												C541.232,397.253,541.919,397.262,542.606,397.273z"/>
											<path style="fill:#5B721D;" d="M541.947,397.263c-2.059-28.016-10.514-73.716-13.184-87.111
												c-4.495,48.601,7.346,78.026,11.783,87.09C541.013,397.25,541.48,397.256,541.947,397.263z"/>
										</g>
										<g>
											<path style="fill:#5B721D;" d="M537.208,397.148c-0.802-2.357-14.086-39.501-50.731-27.242
												c17.014,2.314,24.773,6.806,30.626,13.203c5.009,5.475,11.612,12.341,17.337,13.867
												C535.362,397.054,536.285,397.11,537.208,397.148z"/>
											<path style="fill:#4A6118;" d="M537.183,397.147c-1.123-2.063-17.657-31.312-50.707-27.241
												c17.014,2.314,24.773,6.806,30.626,13.203c5.009,5.475,11.612,12.341,17.337,13.867
												C535.354,397.054,536.268,397.109,537.183,397.147z"/>
										</g>
										<g>
											<path style="fill:#5B721D;" d="M536.059,397.098c0.326-4.767,0.48-23.217-13.875-44.19
												c-13.089-19.122-15.024-29.072-15.25-32.48c0.034,23.261,15.333,31.884,21.829,50.839
												c5.909,17.24,7.079,23.568,7.24,25.828C536.022,397.097,536.041,397.097,536.059,397.098z"/>
											<path style="fill:#4A6118;" d="M536.059,397.098c0.254,0.014,0.507,0.021,0.761,0.033
												c1.845-2.975,5.481-12.035-0.872-31.717c-8.079-25.03-23.021-27.314-29.01-46.37c0,0-1.452,9.47,15.245,33.863
												C536.539,373.881,536.385,392.332,536.059,397.098z"/>
										</g>
										<g>
											<path style="fill:#4A6118;" d="M545.1,397.117c0.896-0.103,1.789-0.227,2.682-0.305
												c7.093-10.781,24.439-35.987,37.069-44.737C578.031,351.201,550.659,357.073,545.1,397.117z"/>
											<path style="fill:#5B721D;" d="M545.1,397.117c0.396-0.045,0.792-0.094,1.187-0.143
												c4.371-11.323,17.089-39.081,38.565-44.899C578.031,351.201,550.659,357.073,545.1,397.117z"/>
										</g>
										<g>
											<path style="fill:#4A6118;" d="M548.055,396.789c8.388-4.993,29.921-17.228,42.678-19.205
												c-5.236-2.881-29.263-7.865-45.133,19.475C546.421,396.958,547.238,396.849,548.055,396.789z"/>
											<path style="fill:#5B721D;" d="M545.601,397.058c0.285-0.035,0.57-0.069,0.855-0.104
												c5.9-5.828,24.727-22.494,44.277-19.37C585.497,374.703,561.471,369.718,545.601,397.058z"/>
										</g>
										<g>
											<path style="fill:#5B721D;" d="M542.008,397.264c0.199,0.003,0.399,0.006,0.598,0.009
												c1.315,0.02,2.618-0.169,3.917-0.327c3.05-4.762,4.784-12.449,6.042-18.665c1.721-8.498,6.056-16.345,19.447-27.094
												C540.037,358.283,540.732,387.147,542.008,397.264z"/>
											<path style="fill:#4A6118;" d="M542.611,397.272c1.313,0.019,2.614-0.169,3.911-0.327
												c3.05-4.762,4.784-12.449,6.042-18.665c1.721-8.498,6.056-16.345,19.447-27.094
												C546.52,362.53,543.018,387.948,542.611,397.272z"/>
										</g>
									</g>
								</g>
							</g>
						</g>
					</g>
					<g>
						<g>
							<g>
								<g>
									<path style="fill:#8362B2;" d="M338.084,226.052c0,0-9.906,25.167-10.418,30.79c-0.194,2.131-30.17,15.049-30.17,15.049
										s2.82,4.29,3.253,8.663c13.367-4.451,27.65-8.569,33.187-10.973c5.537-2.404,6.78-5.516,7.886-10.412
										c1.2-5.311,4.858-16.118,7.068-25.044C349.799,230.459,338.084,226.052,338.084,226.052z"/>
									<g>
										<g>
											<g>
												<g>
													<g>
														<path style="fill:#FFB29C;" d="M333.03,415.837c0,0,0.377,6.369,0.408,7.467c0.031,1.098-7.235,4.543-7.856,4.769
															s6.123,2.026,10.345,1.49c4.221-0.536,3.966-0.32,4.362-1.115c0.396-0.796-0.249-3.288-0.822-5.103
															c-0.574-1.815,0.198-7.432,0.198-7.432L333.03,415.837z"/>
													</g>
													<path style="fill:#2A3051;" d="M339.751,424.285c0,0,1.117,1.217,1.329,5.206c0.051,0.956-0.656,1.78-1.604,1.91
														c-6.252,0.856-14.203,2.499-17.526,2.406c-2.94-0.082-6.391-1.457-6.279-2.499c0.328-3.035,15.179-5.636,16.035-6.506
														c1.356,0.399,0.981,2.405,0.981,2.405S338.41,427.325,339.751,424.285z"/>
													<path style="fill:#2A325B;" d="M331.765,299.79c0,0-4.208,37.913-4.649,45.455c-0.441,7.542,5.155,75.012,5.155,75.012
														l8.101-0.201c0,0,8.509-43.472,1.816-65.98c-0.427-17.248,17.727-36.888,16.61-56.63
														C347.767,295.524,331.765,299.79,331.765,299.79z"/>
												</g>
												<g>
													<g>
														<path style="fill:#FFB29C;" d="M386.204,414.761c0,0,2.619,5.608,3.038,6.587c0.419,0.979-5.107,6.767-5.604,7.2
															c-0.497,0.434,6.414-0.43,10.147-2.47c3.733-2.04,3.573-1.751,3.658-2.615c0.085-0.864-1.402-2.875-2.582-4.301
															c-1.18-1.426-2.463-6.78-2.463-6.78L386.204,414.761z"/>
													</g>
													<path style="fill:#38487C;" d="M341.112,302.421c0,0,10.355,38.663,12.654,45.624
														c2.299,6.96,33.106,70.125,33.106,70.125l7.449-3.191c0,0-8.36-44.22-23.392-64.575
														c-6.589-15.385,4.673-36.098-3.451-53.474C356.547,299.295,341.112,302.421,341.112,302.421z"/>
												</g>
											</g>
											<g>
												<path style="fill:#73509C;" d="M378.651,229.617c0,0-8.003-11.026-15.858-12.952
													c-7.855-1.927-10.968,1.778-13.191,2.075c-2.223,0.296-6.677,2.775-10.871,6.415c-1.555,1.35-5.043,11.807-6.821,30.003
													c-1.594,16.32-6.274,44.498-6.274,44.498s37.613,7.184,46.926,4.516C376.095,269.49,379.516,237.621,378.651,229.617z"
													/>
												<path style="fill:#8362B2;" d="M334.487,275.746c0,0,10.991,3.331,19.618,2.547c-0.863,10.67,6.213,10.501,8.025,11.128
													c0.243,6.431-0.034,12.634-0.034,12.634s-20.461-0.575-34.922-4.508c1.369-9.725,2.083-13.211,2.083-13.211
													S334.722,284.138,334.487,275.746z"/>
												<path style="fill:#8362B2;" d="M367.099,211.083c0,0-9.68-1.722-14.856-0.967c-5.176,0.756-5.903,12.26-5.903,12.26
													L367.099,211.083z"/>
											</g>
										</g>
									</g>
									<g>
										<path style="fill:#FCA08B;" d="M359.095,203.668c0,0-0.904,5.795,1.39,10.748c-4.035,1.4-7.462,5.261-9.364,4.96
											c-1.308-0.207-2.062-5.547-2.062-5.547L359.095,203.668z"/>
										<g>
											<path style="fill:#202441;" d="M344.537,196.696c0,0-4.72-0.644-4.171-4.121c0.344-2.179,2.559-2.248,2.559-2.248
												s-2.649-1.15-2.022-3.451c0.627-2.3,2.614-1.516,2.614-1.516l4.444-2.562c0,0,1.611-2.562,3.681-1.856
												c2.07,0.706,2.305,1.856,2.305,1.856c1.229-2.196,4.941-1.464,4.862,1.229c3.059-2.771,7.659-0.131,7.607,3.111
												c3.346-2.144,3.189,1.464,2.144,2.196c3.294,0.627,2.562,4.81,1.15,5.699c3.503,1.987-0.732,5.228-1.673,5.281
												c2.039,3.189-2.039,4.444-2.039,4.444c0.366,2.667-2.369,3.974-3.903,3.085c-1.534-0.889,0.453-6.169,0.766-8.313
												c0.314-2.144-1.673-6.222-6.379-7.633C351.778,190.484,344.537,196.696,344.537,196.696z"/>
											<path style="fill:#FFB29C;" d="M345.414,192.348c0,0-2.489,3.847-2.721,5.508c-0.233,1.661,0.605,3.226-0.336,4.222
												c-0.941,0.996-1.703,1.666-1.956,2.261c-0.253,0.594,0.962,2.362,1.469,2.604c-0.058,1.62,0.634,5.835,1.263,7.254
												c0.628,1.419,5.502,1.021,9.64-0.486s4.283-6.125,5.124-8.148c0.841-2.023,6.559-3.289,3.173-9.287
												C357.684,190.278,346.507,190.535,345.414,192.348z"/>
											<path style="fill:#FFFFFF;" d="M342.23,208.119c0,0,0.733,0.936,4.74,0C344.995,211.528,342.483,213.765,342.23,208.119z
												"/>
											<path style="fill:#202441;" d="M347.931,200.324c0,0-2.666-1.27-3.766-1.185c-1.1,0.085-0.423-1.397,0.55-1.058
												C345.689,198.42,347.508,199.605,347.931,200.324z"/>
											<path style="fill:#202441;" d="M361.069,196.275c-1.818-3.221-5.883-4.636-9.427-4.977l0.107,3.731
												c0,0,0.634,3.1,1.872,4.219c-0.137,1.649-0.396,3.161-0.655,4.395l2.064,0.124c-0.009-1.574,0.91-1.19,1.866-2.055
												c1.152-1.042,3.297-1.653,4.521,0.708C362.296,200.936,362.611,199.007,361.069,196.275z"/>
											<path style="fill:#202441;" d="M352.849,194.834c0,0-7.284,0.323-9.219-4.347c-1.935-4.67,0.472-8.622,2.866-8.625
												c2.395-0.002,3.606,3.022,3.606,3.022c2.776-2.11,8.022,0.543,9.199,3.086c5.482-1.024,4.834,3.715,4.834,3.715
												c5.671-0.104,3.21,13.967-4.645,19.845c-0.786-2.747-1.936-11.162-1.936-11.162L352.849,194.834z"/>
											<path style="fill:#202441;" d="M344.573,202.126c0.016,0.574,0.313,1.031,0.664,1.021c0.35-0.01,0.621-0.483,0.605-1.057
												c-0.016-0.574-0.313-1.03-0.664-1.021C344.827,201.079,344.556,201.552,344.573,202.126z"/>
											<path style="fill:#FFB29C;" d="M355.583,207.596c0,0,1.386,1.151,3.029-1.072c1.643-2.223,1.227-4.292,0.298-5.222
												c-0.929-0.93-2.915-0.479-3.796,0.779C354.234,203.339,354.009,206.448,355.583,207.596z"/>
										</g>
									</g>
									<path style="fill:#8362B2;" d="M346.34,222.376c0,0,15.842-12.173,21.331-12.36c5.49-0.188,9.591,12.929,9.03,17.115
										C367.986,220.337,350.262,220.023,346.34,222.376z"/>
								</g>
								<path style="fill:#2A3051;" d="M396.119,420.783c0,0,1.494,0.968,2.592,5.045c0.223,0.83-0.084,1.718-0.789,2.211
									c-4.36,3.046-10.36,5.731-13.624,6.376c-2.885,0.57-11.029,0.172-11.15-0.869c-0.352-3.032,14.666-9.455,15.307-10.493
									c1.411,0.089,1.489,2.128,1.489,2.128S395.473,425.573,396.119,420.783z"/>
							</g>
							<g>
								<polygon style="fill:#EF9754;" points="287.778,295.661 310.087,300.095 310.087,237.936 287.778,239.459 								"/>
								<polygon style="fill:#F9C273;" points="298.95,238.696 294.888,238.974 294.888,297.074 298.95,297.881 								"/>
								<polygon style="fill:#F6AA6A;" points="360.485,296.949 310.087,300.095 310.087,237.936 360.485,237.936 								"/>
								<polygon style="fill:#FFD188;" points="338.732,237.936 331.283,237.936 331.283,298.772 338.732,298.307 								"/>
							</g>
							<g>
								<path style="fill:#FFB29C;" d="M327.579,288.026c0,0-1.958,0.357-3.652,0.024c-1.694-0.333-5.236-1.732-6.324-1.476
									c-1.088,0.256-0.402,1.667,0.979,2.197s2.135,0.938,2.135,0.938s-7.029,1.053-9.834,0.794
									c-2.008,0.245-1.049,1.628,0.458,1.798c1.506,0.169,6.687-0.021,6.687-0.021s-5.581,0.769-7.512,0.771
									c-1.931,0.002-1.936,0.633-1.664,1.371c0.271,0.738,8.722,0.179,9.242,0.061c-3.136,1.569-7.521,1.748-8.094,2.003
									c-0.573,0.255-0.771,1.225,0.218,1.517c0.989,0.292,7.353-0.711,8.069-1.031c-1.969,1.106-4.967,1.698-5.498,2.049
									c-0.531,0.351-0.132,1.375,1.641,0.986c1.773-0.389,8.147-2.141,10.073-3.342c1.926-1.201,4.689-2.023,4.689-2.023
									L327.579,288.026z"/>
								<path style="fill:#8362B2;" d="M367.099,240.27c0,0-6.663,21.288-7.457,23.076c-0.62,1.394-30.271,22.111-32.651,23.198
									c-2.38,1.086-0.045,6.135,1.386,8.442c5.514,0.764,27.466-9.582,31.349-11.569c7.938-4.063,13.48-11.694,15.206-16.466
									c1.343-3.714,9.506-19.534,8.418-30.517c-0.304-3.065-3.017-7.075-5.03-7.787
									C374.507,227.298,369.469,230.452,367.099,240.27z"/>
							</g>
						</g>
						<g>
							<g>
								<polygon style="fill:#EF9754;" points="422.322,217.137 444.632,221.57 444.632,159.411 422.322,160.935 								"/>
								<polygon style="fill:#F9C273;" points="433.495,160.172 429.432,160.449 429.432,218.55 433.495,219.357 								"/>
								<polygon style="fill:#F6AA6A;" points="495.029,218.425 444.632,221.57 444.632,159.411 495.029,161.804 								"/>
								<polygon style="fill:#FFD188;" points="473.276,160.492 465.827,160.238 465.827,220.247 473.276,219.783 								"/>
							</g>
							<g>
								<g>
									<g>
										<g>
											<path style="fill:#FFB29C;" d="M439.015,415.207c0,0,0.2,6.377,0.2,7.475c0,1.098-7.359,4.34-7.986,4.549
												c-0.627,0.209,6.065,2.196,10.3,1.778c4.235-0.418,3.973-0.209,4.392-0.993c0.418-0.784-0.157-3.294-0.68-5.124
												s0.405-7.424,0.405-7.424L439.015,415.207z"/>
											<path style="fill:#2A3051;" d="M446.064,426.114c0,0-9.253,1.646-11.463,1.353c0.523-1.046,0.314-2.261-0.209-2.314
												c-0.523-0.052-2.517,1.266-8.202,2.588c-3.091,0.719-4.241,3.594-1.105,3.908c3.137,0.314,19.41,0.654,20.979,0.34
												C447.632,431.675,446.064,426.114,446.064,426.114z"/>
										</g>
										<g>
											<path style="fill:#FFB29C;" d="M470.204,413.727c0,0,1.522,6.196,1.75,7.27c0.228,1.074-6.295,5.775-6.865,6.11
												c-0.57,0.335,6.389,0.886,10.444-0.404c4.055-1.29,3.843-1.031,4.089-1.885c0.246-0.854-0.839-3.189-1.731-4.87
												c-0.892-1.681-1.148-7.346-1.148-7.346L470.204,413.727z"/>
											<path style="fill:#2A3051;" d="M479.058,422.384c0,0-8.399,4.08-10.622,4.253c0.294-1.132,0.359-2.335-0.164-2.277
												c-0.522,0.058-1.863,2.139-6.942,3.157c-2.98,0.597-3.258,3.372-1.451,3.734c1.157,0.232,5.109,0.643,7.884,0.137
												c5.292-0.965,12.145-2.339,13.109-2.754C482.341,427.999,479.058,422.384,479.058,422.384z"/>
										</g>
										<path style="fill:#2A3051;" d="M447.985,299.82c0,0,1.991,33.984,2.921,41.481c0.93,7.497,19.349,76.911,19.349,76.911
											l7.932-1.662c0,0,0-52.489-10.861-69.287c-3.538-16.887,11.49-35.419,6.824-54.634
											C462.953,292.732,447.985,299.82,447.985,299.82z"/>
										<path style="fill:#2A3051;" d="M441.11,297.622c0,0-5.019,33.67-5.647,41.199c-0.627,7.529,2.823,79.888,2.823,79.888
											h8.104c0,0,10.951-48.241,3.921-70.686c0-17.253,18.508-32.311,17.881-52.074
											C457.213,293.753,441.11,297.622,441.11,297.622z"/>
									</g>
									<g>
										<path style="fill:#FCA08B;" d="M467.106,197.773c0,0-0.905,5.795,1.39,10.748c-4.035,1.4-7.461,5.261-9.364,4.96
											c-1.308-0.207-1.754-4.462-1.754-4.462L467.106,197.773z"/>
										<g>
											<path style="fill:#FFB29C;" d="M453.425,186.453c0,0-2.489,3.847-2.722,5.508c-0.233,1.66,0.605,3.226-0.336,4.222
												c-0.941,0.996-1.018,1.116-1.271,1.71c-0.253,0.594,0.277,2.913,0.783,3.155c-0.058,1.62,0.634,5.835,1.263,7.254
												c0.628,1.419,4.652,0.542,8.79-0.965c4.138-1.507,5.295-4.777,6.135-6.8c0.841-2.023,6.397-4.158,3.012-10.156
												C465.695,184.383,454.518,184.64,453.425,186.453z"/>
											<path style="fill:#202441;" d="M460.215,200.882c0.068-0.403,1.088-3.583,1.417-7.529
												c-1.238-1.119-1.872-4.219-1.872-4.219l-0.107-3.731c3.544,0.341,7.608,1.756,9.427,4.977
												c1.542,2.732,1.227,4.661,0.349,6.144c-1.225-2.361-3.848-3.565-5.001-2.523c-1.371,1.24-1.701,3.635-1.132,5.958
												c0.322,1.312,1.04,2.417,1.418,3.44c-0.913,1.514-2.629,3.999-4.695,5.619c-4.101,3.216-9.197,4.132-9.826,2.713
												c-0.613-1.385-0.337-8.856-0.316-10.556C454.312,200.579,460.153,201.245,460.215,200.882z"/>
											<path style="fill:#202441;" d="M460.86,188.939c0,0-7.284,0.323-9.219-4.347c-1.935-4.671,0.471-8.622,2.866-8.624
												c2.395-0.002,3.606,3.022,3.606,3.022c2.776-2.11,8.022,0.543,9.199,3.086c5.482-1.024,4.834,3.715,4.834,3.715
												c5.671-0.104,2.777,10.727-5.078,16.606c-2.283-1.871-1.502-7.923-1.502-7.923L460.86,188.939z"/>
											<path style="fill:#202441;" d="M452.583,196.231c0.016,0.574,0.313,1.03,0.664,1.021c0.35-0.01,0.621-0.483,0.605-1.056
												c-0.016-0.574-0.313-1.03-0.664-1.021C452.838,195.184,452.567,195.657,452.583,196.231z"/>
											<path style="fill:#FFB29C;" d="M463.829,200.066c0,0,1.386,1.151,3.029-1.072c1.643-2.223,1.227-4.292,0.298-5.222
												c-0.929-0.93-2.915-0.48-3.796,0.779C462.48,195.809,462.255,198.919,463.829,200.066z"/>
										</g>
									</g>
									<path style="fill:#202441;" d="M457.334,193.27c0,0-1.175-2.921-4.835-2.787c-0.369-0.101-0.336-1.527,0.739-1.519
										C454.312,188.972,457.066,190.617,457.334,193.27z"/>
									<g>
										<path style="fill:#FF905F;" d="M453.566,215.693c0,0,4.298-5.558,9.486-7.929c5.187-2.371,6.744-1.26,7.262,1.038
											c0.519,2.297,1.186,5.706,1.186,5.706L453.566,215.693z"/>
										<path style="fill:#EE7552;" d="M480.096,223.845c0,0-4.595-9.634-12.45-11.561c-7.855-1.927-10.968,1.779-13.191,2.075
											c-2.223,0.296-6.47,10.013-8.228,16.552c-0.535,1.988-2.708,10.315-3.724,25.55c-1.091,16.361-5.722,43.33-5.722,43.33
											s31.322,2.668,40.634,0C480.948,265.109,480.96,231.848,480.096,223.845z"/>
										<path style="fill:#FFB29C;" d="M425.804,214.183c0,0,0.004-1.991,0.639-3.596c0.635-1.605,2.653-4.835,2.598-5.951
											c-0.054-1.116-1.567-0.698-2.338,0.564c-0.771,1.262-1.31,1.929-1.31,1.929s0.24-7.103,1.003-9.815
											c0.123-2.02-1.411-1.327-1.851,0.124c-0.44,1.451-1.193,6.58-1.193,6.58s0.256-5.628,0.605-7.527
											c0.349-1.899-0.272-2.019-1.046-1.885c-0.775,0.133-1.758,8.545-1.737,9.078c-0.974-3.368-0.354-7.713-0.501-8.323
											c-0.147-0.61-1.065-0.98-1.531-0.061c-0.466,0.919-0.634,7.36-0.451,8.122c-0.73-2.137-0.768-5.193-1.017-5.778
											c-0.249-0.585-1.328-0.379-1.267,1.435c0.061,1.814,0.627,8.4,1.459,10.512c0.832,2.112,1.138,4.978,1.138,4.978
											L425.804,214.183z"/>
										<path style="fill:#EE7552;" d="M455.11,215.565c0,0-20.235,13.187-21.034,14.973c-0.799,1.786-0.511-1.031-1.393-1.587
											c-0.883-0.556-1.493-0.858-1.508-1.437c-0.015-0.579-0.115-1.872-0.329-2.621c-0.214-0.749-2.623-11.267-4.815-12.696
											c-2.191-1.429-6.468-0.072-7.651,2.371c-0.155,4.204,2.198,14.16,3.151,15.666c0.953,1.507,0.939,9.212,3.218,12.931
											c2.279,3.719,4.107,4.678,9.062,3.582c4.955-1.096,37.688-13.078,37.688-13.078S464.553,216.099,455.11,215.565z"/>
									</g>
								</g>
							</g>
							<path style="fill:#EE7552;" d="M480.096,223.845c0,0,1.85,3.173,5.405,12.314c3.555,9.141,4.063,30.979-11.511,23.192
								C458.415,251.563,480.096,223.845,480.096,223.845z"/>
						</g>
						<g>
							<path style="fill:#FFB29C;" d="M268.506,268.643c0,0,1.933,0.436,3.631,0.175c1.698-0.261,5.278-1.505,6.35-1.206
								c1.072,0.299,0.331,1.675-1.064,2.144c-1.395,0.47-2.162,0.844-2.162,0.844s6.946,1.338,9.747,1.197
								c1.987,0.327,0.976,1.663-0.529,1.769c-1.505,0.106-6.649-0.298-6.649-0.298s5.519,0.996,7.439,1.078
								c1.92,0.082,1.899,0.71,1.598,1.432c-0.3,0.722-8.681-0.184-9.194-0.322c3.054,1.69,7.407,2.049,7.966,2.327
								c0.559,0.278,0.716,1.25-0.28,1.5c-0.995,0.249-7.283-1.012-7.982-1.359c1.912,1.181,4.87,1.894,5.383,2.265
								c0.513,0.371,0.074,1.373-1.673,0.913c-1.747-0.46-8.013-2.466-9.879-3.741c-1.866-1.275-4.579-2.206-4.579-2.206
								L268.506,268.643z"/>
							<path style="fill:#E66583;" d="M209.846,225.002c0,0,6.973,17.859,13.106,31.35c6.133,13.491,44.147,20.158,44.147,20.158
								l2.706-8.135c0,0-30.056-13.556-32.29-14.544c-4.055-1.793-11.12-17.472-13.466-23.467
								C221.511,223.874,210.959,217.385,209.846,225.002z"/>
							<g>
								<g>
									<g>
										<g>
											<path style="fill:#FFB29C;" d="M185.236,290.12c0,0,0.532,39.056,2.741,52.587c2.209,13.532-0.138,26.097,1.933,38.385
												c2.071,12.289,6.934,37.587,6.934,37.587l6.524,0.414c0,0,1.661-50.428,1.178-61.336
												c-0.483-10.908,3.196-55.28,3.196-55.901c0-0.621-1.45-14.498-1.45-14.498L185.236,290.12z"/>
											<path style="fill:#FCA08B;" d="M204.959,342.198c0.893-16.967,2.783-39.897,2.783-40.342
												c0-0.621-1.45-14.498-1.45-14.498l-21.057,2.762c0,0,0.532,39.056,2.741,52.587c0.48,2.939,0.737,5.83,0.879,8.685
												C192.405,346.36,198.642,343.23,204.959,342.198z"/>
											<path style="fill:#202441;" d="M186.476,340.99c-2.17-13.708-2.14-50.752-2.14-50.752l21.957-2.879
												c0,0,1.864,12.979,1.864,13.601c0,0.384-1.21,25.833-1.135,37.746c-0.077-0.05-0.156-0.089-0.233-0.14
												c0.077,0.051,0.155,0.09,0.233,0.14c0.002,0.301,0.003,0.6,0.005,0.899C200.633,341.961,192.938,341.883,186.476,340.99z
												"/>
											<path style="fill:#202441;" d="M196.145,418.845c-0.138,2.17-0.584,5.556-2.011,7.429
												c-2.209,2.9-6.352,6.213-4.419,8.028c1.933,1.815,16.431,1.913,17.122,0c0.618-1.712-2.301-13.083-2.922-15.457H196.145z
												"/>
											<path style="fill:#202441;" d="M189.825,431.497c-0.672,1.094-0.889,2.073-0.109,2.805
												c1.933,1.815,16.431,1.913,17.122,0c0.151-0.419,0.09-1.421-0.098-2.725
												C205.331,433.292,192.042,433.179,189.825,431.497z"/>
										</g>
										<g>
											<path style="fill:#FFB29C;" d="M226.101,290.377c0,0,3.45,38.799,1.241,52.331c-2.209,13.532,0.138,26.097-1.933,38.385
												c-2.071,12.289-5.941,37.587-5.941,37.587l-6.524,0.414c0,0-2.654-50.428-2.171-61.336
												c0.483-10.908-0.394-55.28-0.394-55.901c0-0.621,1.45-14.498,1.45-14.498L226.101,290.377z"/>
											<path style="fill:#FCA08B;" d="M227.53,341.396c1.814-14.558-1.428-51.019-1.428-51.019l-14.272-3.018
												c0,0-1.45,13.877-1.45,14.498c0,0.507,0.584,30.126,0.536,46.946C214.87,344.099,220.823,341.228,227.53,341.396z"/>
											<path style="fill:#202441;" d="M206.222,299.371c0-0.621-3.711-12.013-3.711-12.013l24.457,0.966
												c0,0,3.75,36.911,2.285,51.025c-7.134,0.926-15.21,3.534-21.686-0.316C206.551,326.467,206.222,299.762,206.222,299.371z
												"/>
											<path style="fill:#202441;" d="M222.178,426.274c-1.427-1.873-1.873-5.259-2.011-7.429h-7.771
												c-0.621,2.374-3.539,13.745-2.921,15.457c0.69,1.913,15.188,1.815,17.122,0
												C228.53,432.487,224.387,429.174,222.178,426.274z"/>
											<path style="fill:#202441;" d="M209.565,431.635c-0.181,1.276-0.239,2.254-0.09,2.667c0.69,1.913,15.188,1.815,17.122,0
												c0.768-0.721,0.569-1.681-0.079-2.756C224.386,433.254,210.924,433.371,209.565,431.635z"/>
										</g>
										<g>
											<g>
												<g>
													<path style="fill:#E66583;" d="M176.675,228.4c0,0,8.008-6.766,15.465-7.594c7.456-0.828,16.535-1.381,23.783,1.435
														c3.832,17.378,9.838,54.298,12.754,71.527c-23.749,9.942-46.55,7.011-46.55,7.011s-0.724-38.412-3.485-50.839
														S176.675,228.4,176.675,228.4z"/>
												</g>
											</g>
										</g>
										<path style="fill:#FFB29C;" d="M179.661,301.452c0,0,0.877,1.777,2.148,2.933c1.271,1.156,4.491,3.156,4.932,4.177
											c0.441,1.021-1.094,1.311-2.336,0.522c-1.243-0.789-2.016-1.149-2.016-1.149s3.33,6.241,5.202,8.329
											c0.996,1.75-0.679,1.805-1.708,0.702c-1.029-1.103-3.952-5.356-3.952-5.356s2.698,4.916,3.843,6.46
											c1.145,1.544,0.643,1.922-0.108,2.144c-0.75,0.221-5.319-6.863-5.534-7.348c0.608,3.437,3.067,7.046,3.203,7.656
											s-0.522,1.343-1.342,0.726c-0.82-0.617-3.795-6.297-3.966-7.059c0.285,2.229,1.592,4.977,1.626,5.609
											c0.035,0.632-1.021,0.921-1.762-0.726c-0.741-1.647-3.125-7.78-3.308-10.032c-0.183-2.252-1.167-4.947-1.167-4.947
											L179.661,301.452z"/>
										<path style="fill:#E66583;" d="M176.675,228.4c0,0-9.493,16.656-16.121,29.912c-6.628,13.255,12.108,46.997,12.108,46.997
											l8.026-3.015c0,0-8.374-31.89-9.011-34.248c-1.158-4.28,8.726-12.79,11.523-18.589
											C185.995,243.657,182.785,222.669,176.675,228.4z"/>
									</g>
									<g>
										<path style="fill:#FFB29C;" d="M200.374,209.5c0,0-1.961,8.181,2.192,10.406c4.153,2.225,7.959,9.262,1.269,11.799
											c-6.69,2.538-10.447-7.321-17.797-8.909c3.493-2.05,3.032-1.703,3.839-4.241c0.807-2.538-0.923-12.516-0.923-12.516
											L200.374,209.5z"/>
										<path style="fill:#FCA08B;" d="M189.994,218.025c0.49-3.161-1.04-11.986-1.04-11.986l11.42,3.461
											c0,0-0.896,3.748-0.189,6.86C197.016,217.857,193.539,218.226,189.994,218.025z"/>
										<path style="fill:#FFB29C;" d="M203.937,190.217c0,0,2.182,5.629,2.909,11.055c0.726,5.426-1.194,10.732-3.217,12.523
											c-2.024,1.79-9.361,1.364-12.603-4.412c-3.242-5.776-3.038-13.637-3.038-13.637L203.937,190.217z"/>
										<path style="fill:#FFFFFF;" d="M205.626,206.325c0,0-1.367,2.109-5.374,1.173
											C202.228,210.907,205.373,211.972,205.626,206.325z"/>
										<path style="fill:#202441;" d="M193.558,191.799c0,0,1.177,8.87-5.575,12.213c-0.904,0.448,1.814,2.308,1.451,2.947
											c-0.134,0.235,0.519,6.684,0.519,6.684c-10.197-8.027-10.53-17.808-10.53-17.808s-1.39-9.044,5.447-11.647
											C189.436,182.451,194.21,187.103,193.558,191.799z"/>
										<path style="fill:#202441;" d="M191.171,194.822c0,0,2.447,2.666,9.203,1.094c5.985-1.392,8.132-2.509,9.344-6.93
											c0.516-1.212-2.223-2.737-10.875-6.631c-4.719-2.123-12.798-2.204-15.513,2.055
											C182.502,186.385,178.208,193.229,191.171,194.822z"/>
										<path style="fill:#202441;" d="M196.538,201.124c-0.056,0.402,0.126,0.76,0.405,0.798c0.28,0.039,0.551-0.256,0.607-0.658
											c0.056-0.402-0.126-0.76-0.405-0.799C196.866,200.427,196.594,200.721,196.538,201.124z"/>
										<path style="fill:#202441;" d="M204.22,199.839c0.113,0.363,0.41,0.594,0.662,0.515c0.252-0.079,0.365-0.437,0.252-0.8
											c-0.113-0.363-0.41-0.594-0.662-0.515C204.219,199.118,204.106,199.477,204.22,199.839z"/>
										<path style="fill:#202441;" d="M194.463,201.152c0,0,0.823-2.943,3.193-3.182c1.116-0.02,1.106,1.158,0.507,1.228
											C197.563,199.268,195.5,199.659,194.463,201.152z"/>
										<path style="fill:#202441;" d="M206.501,197.794c0,0-1.442-1.248-2.817-0.784c-0.516,0.256-0.161,1.157,0.487,1.05
											C204.82,197.953,205.904,197.689,206.501,197.794z"/>
										<path style="fill:#FFB29C;" d="M189.804,202.609c0,0-1.747-3.562-4.359-2.789c-2.611,0.773,1.236,8.295,4.388,6.985
											C191.061,204.88,189.804,202.609,189.804,202.609z"/>
									</g>
								</g>
							</g>
						</g>
					</g>
				</g>
			</g>
		</g>
		<g>
			<g>
				
					<text transform="matrix(1 0 0 1 459.1467 95.8186)" style="font-family:'Montserrat-SemiBold'; font-size:46.8424px; letter-spacing:2;">WE ARE</text>
				
					<text transform="matrix(1 0 0 1 476.5895 132.8308)" style="font-family:'Montserrat-Medium'; font-size:25.0366px; letter-spacing:17;">Moving</text>
			</g>
			<g>
				<rect x="457.125" y="105.377" width="214.333" height="1"/>
			</g>
			<g>
				<rect x="457.125" y="51.544" width="214.333" height="1"/>
			</g>
		</g>
	</g>
</g>
</svg>
