<?xml version="1.0" encoding="utf-8"?>
<!-- Generator: Adobe Illustrator 27.5.0, SVG Export Plug-In . SVG Version: 6.00 Build 0)  -->
<svg version="1.1" id="Capa_1" xmlns="http://www.w3.org/2000/svg" xmlns:xlink="http://www.w3.org/1999/xlink" x="0px" y="0px"
	 viewBox="0 0 425.2 425.2" style="enable-background:new 0 0 425.2 425.2;" xml:space="preserve">
<g>
	<rect x="0.002" style="fill:#FFFFFF;" width="425.197" height="425.201"/>
	<path style="fill:#BCE1E5;" d="M388.647,287.963h-54.598c9.711,0,17.582-9.572,17.582-21.381s-7.871-21.381-17.582-21.381h42.568
		c9.711,0,17.582-9.574,17.582-21.383c0-11.809-7.871-21.381-17.582-21.381h-8.031c5.258-3.697,8.801-10.592,8.801-18.506
		c0-8.914-4.486-16.547-10.861-19.756h20.578c9.711,0,17.584-9.574,17.584-21.383c0-11.809-7.873-21.381-17.584-21.381h-54.596
		c9.709,0,17.58-9.574,17.58-21.381c0-11.81-7.871-21.383-17.58-21.383h42.566c9.711,0,17.582-9.572,17.582-21.381
		c0-11.809-7.871-21.383-17.582-21.383H30.988c-9.709,0-17.582,9.574-17.582,21.383c0,11.809,7.873,21.381,17.582,21.381h22.211
		c-9.711,0-17.584,9.572-17.584,21.383c0,11.807,7.873,21.381,17.584,21.381H43.02c-9.711,0-17.584,9.572-17.584,21.381
		c0,11.809,7.873,21.383,17.584,21.383h30.758c-6.377,3.209-10.863,10.842-10.863,19.756c0,7.914,3.545,14.809,8.801,18.506H32.531
		c-9.711,0-17.582,9.572-17.582,21.381c0,11.809,7.871,21.383,17.582,21.383H54.74c-9.709,0-17.582,9.572-17.582,21.381
		s7.873,21.381,17.582,21.381H44.563c-9.711,0-17.584,9.574-17.584,21.383s7.873,21.381,17.584,21.381H75.32
		c-6.375,3.211-10.865,10.844-10.865,19.756c0,11.811,7.873,21.383,17.582,21.383h279.31c9.711,0,17.582-9.572,17.582-21.383
		c0-8.912-4.486-16.545-10.861-19.756h20.578c9.709,0,17.582-9.572,17.582-21.381S398.355,287.963,388.647,287.963z"/>
</g>
<g>
	<path style="fill:none;stroke:#003D5B;stroke-width:0.9962;stroke-miterlimit:10;stroke-dasharray:2.9886;" d="M325.478,309.741
		c20.958-25.657,33.535-58.432,33.535-94.147c0-82.25-66.677-148.925-148.924-148.925c-82.251,0-148.926,66.675-148.926,148.925
		c0,35.715,12.578,68.489,33.537,94.147"/>
	<path style="fill:#D7DF23;" d="M178.957,67.73c0,17.588,14.258,31.844,31.845,31.844c17.587,0,31.846-14.256,31.846-31.844
		s-14.259-31.846-31.846-31.846C193.215,35.885,178.957,50.143,178.957,67.73z"/>
	<circle style="fill:#249DC3;" cx="310.051" cy="109.207" r="31.845"/>
	<path style="fill:#949AA8;" d="M62.6,109.207c0,17.589,14.257,31.845,31.844,31.845c17.587,0,31.846-14.256,31.846-31.845
		c0-17.588-14.259-31.845-31.846-31.845C76.856,77.362,62.6,91.619,62.6,109.207z"/>
	<path style="fill:#93C1BD;" d="M327.169,214.02c0,17.588,14.257,31.847,31.845,31.847c17.588,0,31.846-14.259,31.846-31.847
		c0-17.587-14.258-31.845-31.846-31.845C341.426,182.176,327.169,196.434,327.169,214.02z"/>
	<path style="fill:#289FAA;" d="M29.318,214.02c0,17.588,14.258,31.847,31.846,31.847c17.586,0,31.844-14.259,31.844-31.847
		c0-17.587-14.258-31.845-31.844-31.845C43.576,182.176,29.318,196.434,29.318,214.02z"/>
	<g>
		<path style="fill:#2599A3;" d="M235.555,67.811c0,13.252-10.74,23.992-23.989,23.992c-13.249,0-23.991-10.74-23.991-23.992
			c0-13.246,10.742-23.988,23.991-23.988C224.814,43.822,235.555,54.564,235.555,67.811z"/>
		<g>
			<path style="fill:#A7C3D2;" d="M218.688,45.889c2.69,1.613,3.631,4.619,3.901,7.674c0.083,0.935,1.174,1.23,1.716,0.465
				c1.041-1.463,3.023,1.115,3.673,1.786c0.487,0.456,0.902,0.974,1.248,1.553l-0.806,2.171c-0.353-0.454-0.646-0.944-0.88-1.467
				c-0.526-1.055-1.285-3.334-2.892-3.176c-1.749,0.17-3.41,1.023-4.832,2.02c-0.37,0.261-0.88,0.661-1.008,1.128
				c-0.281,1.026,1.864,4.386-1.229,4.307c-0.682-0.017-0.955,0.7-0.714,1.243c0.966,2.158,3.876,3.149,3.819,5.717
				c-0.009,0.493,0.509,0.907,0.987,0.752c0.552-0.178,0.938-0.335,1.472-0.569c0.582-0.298,1.184-0.556,1.801-0.774
				c0.895-0.001,1.348,0.367,1.361,1.101c-0.721,0.463-1.107,0.701-1.302,1.588c-0.335,1.531-1.005,2.89-1.212,4.487
				c-0.414,3.2-0.389,5.829-2.741,8.341c-0.401,0.428-0.005,1.116,0.568,0.974c1.298-0.317,2.402-1.265,3.73-1.438
				c0.245-0.03,0.469-0.145,0.534-0.407c0.232-0.911,1.911-4.193,3.222-4.086c-0.068,1.038,1.56,1.417,1.862,0.306
				c0.995-3.646,2.83-6.975,4.026-10.542c0.017-0.407,0.028-0.816,0.028-1.229c0-10.746-7.069-19.836-16.811-22.888
				C218.033,44.867,217.787,45.556,218.688,45.889z"/>
			<path style="fill:#A7C3D2;" d="M195.497,52.836c0.21-0.15,0.424-0.282,0.639-0.408c-0.385,1.316-0.976,2.531-0.694,3.955
				c0.288,1.441,1.912,2.954,2.793,4.091c0.539,0.698,1.117,1.344,1.777,1.926c0.99,0.876,0.031,0.879-0.844,1.787
				c-0.688,0.711-1.429,1.939-0.756,2.934c0.925,1.363,0.511,2.653,0.92,4.136c0.482,1.75,3.371,4.162,0.95,6.018
				c-1.095,0.838-0.106,2.219-0.183,3.29c-0.104,1.506,0.227,3.04,0.781,4.457c-0.03,0.397-0.04,0.803-0.023,1.215
				c0.047,1.108,1.755,1.116,1.727,0c-0.108-4.242,2.584-6.49,5.361-9.265c2.063-2.061,4.755-3.079,6.791-5.06
				c1.025-0.995,0.878-2.567-0.033-3.553c-0.547-0.595-1.498-0.911-2.207-1.248c-0.471-0.224-0.93-0.459-1.384-0.714
				c-0.982-0.552,0.134-0.543,0.712-0.79c0.758-0.326,0.564-1.65-0.234-1.782c-2.554-0.423-4.182-2.478-6.581-3.228
				c-0.946-0.294-1.85-0.419-2.833-0.498c-1.809-0.146-1.946-0.981-1.915-2.695c0.015-0.796-0.844-1.181-1.494-0.858
				c-0.077,0.039-0.155,0.078-0.232,0.114c-1.124-3.603,4.733-4.175,4.814-1.506c0.036,1.146,1.726,1.425,2.023,0.273
				c0.46-1.769,2.108-4.383,4.462-2.935c0.588,0.361,1.457-0.102,1.419-0.814c-0.037-0.689,0.007-1.346,0.065-2.011
				c0.337,0.061,0.673,0.12,1.008,0.196c0.844,0.192,1.486-0.82,0.854-1.466c-0.731-0.741-3.641-1.616-4.793-2.457
				c2.537-0.419,4.652-0.063,7.228-0.331c0.499-0.052,0.809-0.76,0.779-1.146c-1.562-0.318-2.795-0.072-4.45-0.072
				c-6.17,0-11.792,2.33-16.044,6.157c-0.391,0.419-0.78,0.851-1.17,1.297C194.285,52.354,194.879,53.275,195.497,52.836z"/>
			<path style="fill:#FFFFFF;" d="M195.119,52.269c0.21-0.15,0.423-0.282,0.639-0.409c-0.387,1.317-0.977,2.532-0.693,3.955
				c0.286,1.441,1.91,2.956,2.791,4.093c0.539,0.696,1.119,1.343,1.777,1.926c0.992,0.876,0.031,0.878-0.844,1.787
				c-0.688,0.711-1.429,1.939-0.754,2.933c0.923,1.364,0.511,2.654,0.918,4.134c0.482,1.752,3.37,4.163,0.95,6.019
				c-1.093,0.838-0.106,2.221-0.182,3.291c-0.107,1.506,0.227,3.04,0.782,4.457c-0.03,0.397-0.04,0.802-0.023,1.216
				c0.044,1.107,1.754,1.116,1.725,0c-0.107-4.245,2.585-6.493,5.36-9.268c2.061-2.059,4.756-3.076,6.795-5.058
				c1.021-0.996,0.874-2.568-0.036-3.554c-0.548-0.593-1.499-0.911-2.21-1.246c-0.469-0.225-0.928-0.46-1.383-0.714
				c-0.98-0.554,0.137-0.543,0.714-0.792c0.757-0.324,0.563-1.65-0.232-1.781c-2.558-0.424-4.185-2.477-6.585-3.227
				c-0.945-0.295-1.847-0.419-2.83-0.499c-1.813-0.146-1.946-0.983-1.916-2.697c0.015-0.794-0.845-1.18-1.494-0.857
				c-0.078,0.039-0.156,0.078-0.233,0.115c-1.124-3.602,4.733-4.175,4.816-1.506c0.035,1.146,1.726,1.424,2.024,0.273
				c0.457-1.769,2.105-4.382,4.459-2.935c0.59,0.361,1.457-0.1,1.42-0.815c-0.037-0.689,0.008-1.344,0.064-2.009
				c0.337,0.059,0.674,0.119,1.008,0.196c0.845,0.192,1.488-0.821,0.855-1.467c-0.732-0.741-3.642-1.617-4.792-2.458
				c2.535-0.418,5.071,0.024,7.646-0.245c0.5-0.052,0.771-0.431,0.741-0.816c-1.561-0.32-3.179-0.488-4.833-0.488
				c-6.17,0-11.792,2.331-16.043,6.158c-0.392,0.417-0.78,0.85-1.17,1.297C193.906,51.786,194.503,52.707,195.119,52.269z"/>
			<path style="fill:#FFFFFF;" d="M218.656,45.584c3.126,1.516,4.176,4.719,4.464,7.979c0.083,0.935,1.173,1.23,1.718,0.465
				c1.041-1.463,3.021,1.115,3.672,1.786c0.486,0.456,0.902,0.974,1.246,1.553l-0.806,2.171c-0.353-0.454-0.645-0.944-0.878-1.467
				c-0.527-1.055-1.287-3.334-2.895-3.176c-1.745,0.17-3.409,1.023-4.828,2.02c-0.372,0.261-0.88,0.661-1.009,1.128
				c-0.282,1.026,1.863,4.386-1.23,4.307c-0.681-0.017-0.955,0.7-0.713,1.243c0.967,2.158,3.875,3.149,3.82,5.717
				c-0.012,0.493,0.505,0.907,0.985,0.752c0.552-0.178,0.938-0.335,1.472-0.569c0.583-0.298,1.182-0.556,1.8-0.774
				c0.896-0.001,1.35,0.367,1.364,1.101c-0.721,0.463-1.109,0.701-1.304,1.588c-0.335,1.531-1.005,2.89-1.21,4.487
				c-0.416,3.2-0.39,5.829-2.742,8.341c-0.402,0.428-0.007,1.116,0.568,0.974c1.298-0.317,2.402-1.265,3.73-1.438
				c0.246-0.03,0.471-0.145,0.534-0.407c0.232-0.911,1.912-4.193,3.222-4.086c-0.069,1.038,1.56,1.417,1.862,0.306
				c0.996-3.646,2.832-6.975,4.024-10.542c0.021-0.407,0.03-0.816,0.03-1.229c0-10.942-7.331-20.168-17.35-23.05
				C218.193,45.093,218.327,45.425,218.656,45.584z"/>
		</g>
	</g>
	<g>
		
			<polygon style="fill:#93CED4;stroke:#000000;stroke-width:1.6557;stroke-linecap:round;stroke-linejoin:round;stroke-miterlimit:10;" points="
			323.981,113.116 295.058,113.116 287.883,94.905 326.089,94.905 		"/>
		
			<polyline style="fill:none;stroke:#000000;stroke-width:1.6557;stroke-linecap:round;stroke-linejoin:round;stroke-miterlimit:10;" points="
			296.162,121.212 323.021,121.212 326.385,92.876 330.655,91.594 		"/>
		
			<path style="fill:#93CED4;stroke:#000000;stroke-width:1.3477;stroke-linecap:round;stroke-linejoin:round;stroke-miterlimit:10;" d="
			M302.6,124.43c0,1.779-1.44,3.22-3.219,3.22c-1.778,0-3.219-1.44-3.219-3.22c0-1.777,1.44-3.218,3.219-3.218
			C301.159,121.212,302.6,122.652,302.6,124.43z"/>
		<path d="M300.668,124.43c0,0.711-0.576,1.288-1.287,1.288c-0.712,0-1.288-0.577-1.288-1.288c0-0.711,0.576-1.287,1.288-1.287
			C300.092,123.143,300.668,123.719,300.668,124.43z"/>
		
			<path style="fill:#93CED4;stroke:#000000;stroke-width:1.3477;stroke-linecap:round;stroke-linejoin:round;stroke-miterlimit:10;" d="
			M322.469,124.43c0,1.779-1.441,3.22-3.22,3.22c-1.778,0-3.22-1.44-3.22-3.22c0-1.777,1.441-3.218,3.22-3.218
			C321.027,121.212,322.469,122.652,322.469,124.43z"/>
		<path d="M320.537,124.43c0,0.711-0.577,1.288-1.288,1.288c-0.71,0-1.287-0.577-1.287-1.288c0-0.711,0.577-1.287,1.287-1.287
			C319.96,123.143,320.537,123.719,320.537,124.43z"/>
		<path d="M332.219,92.328c0,0.863-0.702,1.564-1.563,1.564c-0.864,0-1.564-0.701-1.564-1.564c0-0.862,0.699-1.563,1.564-1.563
			C331.517,90.766,332.219,91.466,332.219,92.328z"/>
		
			<line style="fill:none;stroke:#000000;stroke-width:1.6557;stroke-linecap:round;stroke-linejoin:round;stroke-miterlimit:10;" x1="325.064" y1="104.012" x2="291.469" y2="104.012"/>
		
			<line style="fill:none;stroke:#000000;stroke-width:1.6557;stroke-linecap:round;stroke-linejoin:round;stroke-miterlimit:10;" x1="308.267" y1="94.905" x2="308.267" y2="112.565"/>
		
			<line style="fill:none;stroke:#000000;stroke-width:1.6557;stroke-linecap:round;stroke-linejoin:round;stroke-miterlimit:10;" x1="295.426" y1="94.905" x2="301.313" y2="112.565"/>
		
			<line style="fill:none;stroke:#000000;stroke-width:1.6557;stroke-linecap:round;stroke-linejoin:round;stroke-miterlimit:10;" x1="317.501" y1="94.905" x2="316.029" y2="112.565"/>
		
			<line style="fill:none;stroke:#000000;stroke-width:1.6557;stroke-linecap:round;stroke-linejoin:round;stroke-miterlimit:10;" x1="325.674" y1="98.491" x2="289.354" y2="98.491"/>
		
			<line style="fill:none;stroke:#000000;stroke-width:1.6557;stroke-linecap:round;stroke-linejoin:round;stroke-miterlimit:10;" x1="324.45" y1="109.068" x2="293.494" y2="109.068"/>
	</g>
	<g>
		<path style="fill:#EE332A;" d="M386.039,213.638c0.199,13.916-10.923,25.358-24.841,25.557
			c-13.917,0.197-25.36-10.924-25.557-24.842c-0.198-13.918,10.924-25.358,24.841-25.557
			C374.4,188.599,385.843,199.72,386.039,213.638z"/>
		<path style="fill:#FFFFFF;" d="M360.544,193.178c-11.496,0.164-20.685,9.617-20.521,21.113
			c0.163,11.498,9.615,20.685,21.111,20.521c11.498-0.164,20.686-9.615,20.521-21.113
			C381.494,202.201,372.042,193.015,360.544,193.178z M361.081,230.916c-9.348,0.133-17.029-7.336-17.162-16.681
			c-0.132-9.345,7.336-17.029,16.681-17.161c9.345-0.134,17.029,7.336,17.162,16.681C377.895,223.1,370.427,230.784,361.081,230.916
			z"/>
		<path style="fill:#FFFFFF;" d="M360.653,200.887c-7.239,0.104-13.023,6.055-12.922,13.295c0.104,7.237,6.056,13.024,13.294,12.92
			c7.239-0.102,13.025-6.055,12.922-13.293C373.846,206.569,367.893,200.784,360.653,200.887z M360.966,222.847
			c-4.888,0.069-8.908-3.838-8.978-8.727c-0.068-4.889,3.839-8.908,8.728-8.978c4.888-0.07,8.908,3.837,8.977,8.728
			C369.762,218.758,365.854,222.776,360.966,222.847z"/>
		<path style="fill:#FFFFFF;" d="M360.775,209.369c-2.555,0.035-4.598,2.137-4.562,4.692c0.035,2.554,2.136,4.596,4.692,4.56
			c2.554-0.036,4.596-2.136,4.559-4.692C365.431,211.375,363.328,209.333,360.775,209.369z M360.866,215.822
			c-1.009,0.013-1.837-0.793-1.853-1.802c-0.014-1.009,0.793-1.838,1.799-1.853c1.01-0.013,1.841,0.793,1.853,1.802
			C362.681,214.977,361.875,215.807,360.866,215.822z"/>
		<g>
			<polygon style="fill:#F9A45A;" points="383.828,227.8 384.502,231.83 385.55,232.43 385.488,230.763 386.567,233.014 
				388.977,234.393 388.994,232.509 389.971,234.964 392.082,236.174 391.41,232.143 			"/>
			<polygon style="fill:#DA844D;" points="384.261,227.042 388.302,225.791 390.041,226.406 388.592,226.995 390.692,227.162 
				392.535,228.22 391.691,228.65 393.674,228.872 395.883,230.136 391.843,231.389 			"/>
			<path style="fill:#603913;" d="M360.647,214.48c-0.332-0.191-0.119-1.052,0.517-0.737l31.947,18.071
				c0.333,0.191,0.448,0.615,0.258,0.949l0,0c-0.191,0.335-0.617,0.449-0.951,0.258L360.647,214.48z"/>
		</g>
	</g>
	<g>
		<path style="fill:#FFC421;" d="M77.402,234.145c0,1.771-1.436,3.208-3.206,3.208H48.132c-1.771,0-3.207-1.436-3.207-3.208v-24.777
			c0-1.77,1.437-3.208,3.207-3.208h26.064c1.771,0,3.206,1.438,3.206,3.208V234.145z"/>
		<path style="fill:#FFD31C;" d="M75.279,234.434c0,1.611-1.249,2.919-2.787,2.919H49.838c-1.541,0-2.789-1.308-2.789-2.919v-22.279
			c0-1.614,1.248-2.921,2.789-2.921h22.654c1.538,0,2.787,1.307,2.787,2.921V234.434z"/>
		<path style="fill:#D1D3D4;" d="M61.164,188.518c-5.967,0-10.816,4.775-10.941,10.712v6.93h3.709v-6.93
			c0.124-3.891,3.309-7.011,7.232-7.011c3.922,0,7.107,3.12,7.234,7.011v6.93h3.706v-6.93
			C71.979,193.293,67.131,188.518,61.164,188.518z"/>
		<path style="fill:#E49723;" d="M64.734,219.988c0-1.973-1.599-3.571-3.57-3.571c-1.972,0-3.57,1.599-3.57,3.571
			c0,1.339,0.737,2.504,1.828,3.116l-0.859,5.463h4.993l-0.68-5.446C63.983,222.514,64.734,221.339,64.734,219.988z"/>
		<path style="fill:#D27D21;" d="M58.796,219.988c0-1.766,1.284-3.23,2.97-3.517c-0.195-0.033-0.397-0.055-0.602-0.055
			c-1.972,0-3.57,1.599-3.57,3.571c0,1.339,0.737,2.504,1.828,3.116l-0.859,5.463h1.202l0.86-5.463
			C59.533,222.492,58.796,221.327,58.796,219.988z"/>
	</g>
	<g>
		
			<rect x="82.118" y="83.746" transform="matrix(0.5394 -0.8421 0.8421 0.5394 -47.4109 127.692)" style="fill:#51693C;" width="21.782" height="46.871"/>
		<polygon style="fill:#445F37;" points="68.135,103.619 79.371,86.077 117.89,110.75 		"/>
		<path style="fill:#6F8A52;" d="M108.713,122.987l5.221-8.151c-2.302-1.475-3.154-4.247-1.906-6.195L83.729,90.516
			c-1.248,1.948-4.125,2.332-6.424,0.859l-5.222,8.151c2.301,1.474,3.154,4.247,1.906,6.194l28.3,18.126
			C103.537,121.898,106.413,121.515,108.713,122.987z"/>
		<path style="fill:#E8E2C3;" d="M108.322,122.436l4.946-7.722c-2.235-1.432-3.087-4.089-1.906-5.934L83.881,91.178
			c-1.183,1.846-3.951,2.181-6.186,0.75l-4.945,7.722c2.233,1.431,3.086,4.086,1.905,5.932l27.481,17.603
			C103.318,121.338,106.088,121.005,108.322,122.436z"/>
		<path style="fill:#51693C;" d="M101.559,112.659c-3.102,4.842-9.445,6.317-14.169,3.294c-4.722-3.025-6.034-9.405-2.933-14.248
			c3.103-4.845,9.445-6.32,14.169-3.295C103.35,101.435,104.662,107.814,101.559,112.659z"/>
		<g>
			<path style="fill:#E8E2C3;" d="M95.235,112.005c-0.575,0.898-1.354,1.438-2.334,1.616c-0.979,0.178-2.062-0.027-3.245-0.613
				l-1.018,1.587l-0.618-0.398l1.016-1.584c-1.106-0.71-2.039-1.745-2.796-3.104l1.519-2.37l0.291,0.187
				c-0.869,1.946-0.432,3.539,1.313,4.775l3.282-5.125c-1.424-2.539-1.721-4.461-0.885-5.762c0.505-0.791,1.201-1.248,2.088-1.376
				c0.887-0.125,1.864,0.103,2.932,0.683l0.748-1.166l0.62,0.396l-0.761,1.185c1.168,0.748,1.943,1.691,2.329,2.83l-1.284,2.006
				l-0.293-0.187c0.346-0.859,0.44-1.609,0.283-2.249c-0.155-0.64-0.59-1.3-1.303-1.979l-2.885,4.503
				c0.944,1.601,1.473,2.906,1.579,3.918C95.879,110.557,95.687,111.3,95.235,112.005z M93.789,105.189l2.697-4.213
				c-0.55-0.268-1.138-0.318-1.766-0.154c-0.626,0.163-1.078,0.459-1.35,0.885C92.91,102.424,93.051,103.584,93.789,105.189z
				 M93.544,111.513c0.585-0.911,0.429-2.194-0.468-3.849l-3.094,4.833c0.678,0.333,1.343,0.406,1.993,0.221
				C92.623,112.535,93.148,112.133,93.544,111.513z"/>
		</g>
	</g>
</g>
<g>
	<g>
		<rect x="364.99" y="367.671" style="fill:#28313B;" width="10.799" height="57.529"/>
		<path style="fill:#1B232D;" d="M384.513,380.227c0,2.609-2.661,4.725-5.944,4.725h-16.356c-3.284,0-5.945-2.115-5.945-4.725l0,0
			c0-2.608,2.661-4.725,5.945-4.725h16.356C381.852,375.502,384.513,377.618,384.513,380.227L384.513,380.227z"/>
		<path style="fill:#1B232D;" d="M384.513,392.456c0,2.609-2.661,4.725-5.944,4.725h-16.356c-3.284,0-5.945-2.115-5.945-4.725l0,0
			c0-2.608,2.661-4.724,5.945-4.724h16.356C381.852,387.732,384.513,389.848,384.513,392.456L384.513,392.456z"/>
		<path style="fill:#1B232D;" d="M384.513,404.686c0,2.608-2.661,4.725-5.944,4.725h-16.356c-3.284,0-5.945-2.116-5.945-4.725l0,0
			c0-2.609,2.661-4.725,5.945-4.725h16.356C381.852,399.962,384.513,402.077,384.513,404.686L384.513,404.686z"/>
		<path style="fill:#1B232D;" d="M384.513,416.813c0,2.609-2.661,4.725-5.944,4.725h-16.356c-3.284,0-5.945-2.115-5.945-4.725l0,0
			c0-2.609,2.661-4.724,5.945-4.724h16.356C381.852,412.09,384.513,414.204,384.513,416.813L384.513,416.813z"/>
		<path style="fill:#1B232D;" d="M382.004,425.2c-0.972-0.55-2.152-0.881-3.436-0.881h-16.356c-1.283,0-2.465,0.331-3.437,0.881
			H382.004z"/>
		<path style="fill:#1E5265;" d="M409.48,349.004c0,13.763-11.157,24.922-24.922,24.922h-50.579
			c-13.765,0-24.922-11.159-24.922-24.922v-24.91c0-13.765,11.157-24.922,24.922-24.922h50.579
			c13.765,0,24.922,11.157,24.922,24.922V349.004z"/>
		<path style="fill:#D1D3D4;" d="M387.242,299.321c3.413,3.99,5.486,9.161,5.486,14.824v22.824
			c0,12.611-10.223,22.834-22.834,22.834h-46.344c-5.139,0-9.864-1.717-13.68-4.581c2.766,10.749,12.494,18.703,24.108,18.703
			h50.579c13.765,0,24.922-11.159,24.922-24.922v-24.91C409.48,311.237,399.743,300.66,387.242,299.321z"/>
	</g>
	<g>
		<g>
			<g>
				<path style="fill:#1D0600;" d="M172.464,399.549c-0.759,0-1.521-0.005-2.289-0.014l0.298-24.921
					c36.536,0.448,62.892-10.82,78.406-33.459c11.313-16.506,12.642-33.32,12.652-33.486l24.874,1.541
					c-0.06,0.955-1.626,23.647-16.97,46.034C255.525,375.542,227.439,399.549,172.464,399.549z"/>
			</g>
			<g>
				<g>
					<g>
						<path style="fill:#F9A374;" d="M152.399,380.661c0,0-3.227-2.2-5.373-1.663l-10.401,11.093l-1.823,1.601
							c0,0,3.401,1.542,6.682-1.601C141.483,390.091,149.222,381.422,152.399,380.661z"/>
						<path style="fill:#F9A374;" d="M158.766,380.661c0,0-3.226-2.2-5.369-1.663l-10.405,11.093l-1.823,1.601
							c0,0,3.403,1.542,6.684-1.601C147.852,390.091,155.589,381.422,158.766,380.661z"/>
						<path style="fill:#F9A374;" d="M147.593,379.188c0,0-3.228-2.2-5.369-1.662l-10.405,11.091l-1.823,1.599
							c0,0,3.402,1.544,6.682-1.599C136.677,388.616,144.415,379.949,147.593,379.188z"/>
					</g>
					<path style="fill:#F9A374;" d="M170.444,389.151c0,0-7.532,3.433-11.739,3.813c0,0-3.379,1.094-8.531,5.057
						c0,0-3.289,1.801-2.729-3.451c0,0,4.614-5.307,9.037-6.604c0,0-7.806-11.086-14.258-10.44c0,0,10.358-2.501,15.362-1.379
						c0,0,2.902,0.325,12.858,0V389.151z"/>
				</g>
			</g>
		</g>
		<g>
			<polygon style="fill:#F9A374;" points="316.551,284.013 294.356,284.013 294.356,267.045 316.551,257.327 			"/>
			<path style="fill:#E6E7E8;" d="M303.547,280.104c-5.197-3.663-6.036-10.568-3.085-15.732l-6.105,2.672v16.968h22.194v-1.127
				C312.006,283.575,307.025,282.556,303.547,280.104z"/>
		</g>
		<path style="fill:#E6E7E8;" d="M355.007,421.109l5.299-122.79c-1.427-18.907-14.605-20.624-14.605-20.624l-31.28-3.307
			l-10.65,7.11l-9.849-6.359l-25.57,16.801c0,0-3.878,2.995-6.759,16.193l6.725,112.976H355.007z"/>
		<polygon style="fill:#00B9C5;" points="308.637,281.499 299.781,281.499 294.135,291.969 300.249,301.103 300.613,301.125 
			307.411,301.125 313.402,291.967 		"/>
		<polygon style="fill:#00858E;" points="300.249,301.103 298.609,397.882 306.563,411.645 314.036,397.299 307.411,301.125 		"/>
		<path style="fill:#270A00;" d="M357.434,421.109l2.872-123.954c-1.427-18.905-14.605-20.622-14.605-20.622l-28.78-3.165
			l6.872,147.741H357.434z"/>
		<path style="fill:#270A00;" d="M293.304,421.109l0.617-145.97l-25.57,16.801c0,0-3.878,2.995-6.759,16.193l6.725,112.976H293.304z
			"/>
		<path style="fill:#4E2609;" d="M358.13,425.2c-0.307-2.532-0.696-4.091-0.696-4.091h-89.117c-0.213,1.407-0.373,2.77-0.488,4.091
			H358.13z"/>
		<polygon style="fill:#4E2609;" points="269.824,425.2 268.316,421.109 245.27,425.2 		"/>
		<polygon style="fill:#FFFFFF;" points="290.226,277.538 294.475,272.536 303.77,281.499 287.048,297.231 		"/>
		<polygon style="fill:#FFFFFF;" points="320.34,273.696 316.551,269.298 303.77,281.499 323.314,297.231 		"/>
		<g>
			<g>
				<path style="fill:#F9A374;" d="M328.828,226.975c-0.415,6.324,2.482,11.656,6.458,11.908c3.975,0.257,7.529-4.654,7.935-10.979
					c0.401-6.321-2.487-11.652-6.467-11.907C332.782,215.739,329.231,220.655,328.828,226.975z"/>
				<g>
					<path style="fill:#C8825F;" d="M334.457,224.72c0,0,0.012-0.354,0.09-0.935c0.071-0.587,0.272-1.418,0.64-2.319
						c0.376-0.872,1.037-1.894,2.021-2.031c0.242-0.035,0.498-0.022,0.762,0.019c0.043,0.021,0.315,0.08,0.398,0.125
						c0.094,0.06,0.188,0.079,0.303,0.164c0.446,0.277,0.834,0.732,1.12,1.27c0.306,0.528,0.535,1.124,0.693,1.726
						c0.147,0.599,0.278,1.229,0.263,1.779c-0.036,0.63,0.014,1.275-0.055,1.83c-0.059,0.564-0.11,1.095-0.163,1.588
						c-0.091,0.499-0.154,0.96-0.209,1.37c-0.051,0.414-0.158,0.761-0.21,1.055c-0.125,0.585-0.182,0.93-0.182,0.93
						s0.164-0.304,0.418-0.85c0.115-0.281,0.296-0.605,0.435-1.004c0.145-0.397,0.313-0.845,0.473-1.344
						c0.15-0.502,0.266-1.071,0.395-1.67c0.14-0.604,0.16-1.204,0.229-1.847c0.055-0.732-0.018-1.429-0.189-2.136
						c-0.168-0.7-0.414-1.398-0.781-2.063c-0.37-0.65-0.893-1.276-1.6-1.702c-0.16-0.107-0.39-0.194-0.6-0.274
						c-0.225-0.073-0.283-0.071-0.557-0.129c-0.395-0.039-0.79-0.033-1.182,0.056c-0.793,0.173-1.398,0.719-1.765,1.264
						c-0.381,0.546-0.577,1.119-0.716,1.641c-0.263,1.051-0.228,1.941-0.189,2.545C334.355,224.39,334.457,224.72,334.457,224.72z"
						/>
				</g>
				<path style="fill:#C8825F;" d="M334.457,224.72c0,0-0.448-0.633,2.096-1.013c0,0,2.924,0.178,1.652,3.416
					c-0.275,0.697-0.494,1.413-0.58,2.159c-0.117,1.059,0.528,2.426-0.036,3.405c-0.729,1.268-3.077,0.788-3.393-0.56
					c-0.243-1.029,0.842-2.931,1.351-3.727C335.547,228.401,337.085,225.985,334.457,224.72z"/>
				<g>
					<path style="fill:#C8825F;" d="M334.179,231.994c0.005,0.005-0.083,0.054-0.177,0.187c-0.106,0.13-0.217,0.339-0.299,0.611
						c-0.056,0.137-0.063,0.285-0.075,0.453c-0.011,0.165-0.035,0.346,0.022,0.518c0.042,0.174,0.069,0.365,0.136,0.547
						c0.067,0.177,0.182,0.332,0.278,0.5c0.118,0.152,0.21,0.335,0.354,0.447c0.131,0.125,0.29,0.223,0.427,0.324
						c0.273,0.225,0.571,0.339,0.845,0.384c0.527,0.134,0.897,0.097,0.897,0.097s-0.194-0.361-0.501-0.717
						c-0.075-0.095-0.156-0.189-0.253-0.274c-0.078-0.104-0.141-0.229-0.229-0.326c-0.084-0.102-0.154-0.218-0.255-0.31
						c-0.104-0.092-0.138-0.225-0.212-0.33c-0.179-0.2-0.276-0.432-0.402-0.652c-0.067-0.107-0.109-0.222-0.156-0.331
						c-0.035-0.114-0.114-0.224-0.141-0.329C334.279,232.371,334.177,231.994,334.179,231.994z"/>
				</g>
			</g>
			<path style="fill:#F9A374;" d="M262.197,204.554c0,0-4.544,47.508,18.717,62.461c0,0,11.618,11.423,25.578,1.415
				c0,0,20.708-11.171,24.124-19.691c0,0,17.877-77.14-25.53-79.632C305.086,169.106,268.012,160.525,262.197,204.554z"/>
			<path style="fill:#E6E7E8;" d="M305.086,169.106c0,0-2.946-0.682-7.308-0.675c7.7,2.991,13.589,9.382,17.523,17.168
				c5.569,11.032,9.403,24.593,10.044,36.966c0.852,16.421-7.579,33.175-22.351,41.123c-6.158,3.316-13.86,6.438-20.934,4.301
				c3.256,2.533,13.067,8.588,24.432,0.44c0,0,20.708-11.171,24.124-19.691C330.616,248.738,348.493,171.599,305.086,169.106z"/>
			<g>
				<g>
					<path style="fill:#2E2E2F;" d="M306.11,216.209c0,2.066,1.676,3.742,3.743,3.742c2.067,0,3.743-1.676,3.743-3.742
						c0-2.066-1.676-3.743-3.743-3.743C307.786,212.466,306.11,214.143,306.11,216.209z"/>
					<path style="fill:#FFFFFF;" d="M309.636,213.813c-0.303,0.42,0.133,1.25,0.974,1.854c0.838,0.602,1.764,0.752,2.064,0.333
						c0.303-0.419-0.133-1.248-0.972-1.854C310.862,213.544,309.938,213.395,309.636,213.813z"/>
				</g>
				<path style="fill:#472B1E;" d="M302.725,203.672c0,0-1.631,0.546-1.803,2.377c0,0,0.072,2.178,1.89,1.991
					c0,0,13.405-1.73,18.578,1.598C321.39,209.638,320.763,199.808,302.725,203.672z"/>
			</g>
			<g>
				<g>
					<path style="fill:#2E2E2F;" d="M283.596,216.209c0,2.066-1.674,3.742-3.742,3.742c-2.067,0-3.742-1.676-3.742-3.742
						c0-2.066,1.675-3.743,3.742-3.743C281.922,212.466,283.596,214.143,283.596,216.209z"/>
					<path style="fill:#FFFFFF;" d="M280.07,213.813c0.302,0.42-0.133,1.25-0.973,1.854c-0.838,0.602-1.764,0.752-2.064,0.333
						c-0.303-0.419,0.133-1.248,0.973-1.854C278.845,213.544,279.77,213.395,280.07,213.813z"/>
				</g>
				<path style="fill:#472B1E;" d="M286.982,203.672c0,0,1.632,0.546,1.803,2.377c0,0-0.074,2.178-1.889,1.991
					c0,0-13.406-1.73-18.58,1.598C268.316,209.638,268.944,199.808,286.982,203.672z"/>
			</g>
			<g>
				<g>
					<path style="fill:#D78E65;" d="M292.103,224.77c0,0-0.111,0.401-0.336,1.063c-0.214,0.669-0.557,1.593-0.948,2.695
						c-0.407,1.079-0.884,2.339-1.393,3.688c-0.121,0.335-0.244,0.676-0.369,1.02l-0.199,0.516l-0.051,0.129l-0.025,0.066
						l-0.013,0.032c0.059-0.178,0.015-0.044,0.027-0.082l-0.002,0.01l-0.005,0.016l-0.05,0.215
						c-0.154,0.647-0.222,1.349-0.228,2.011c0.009,0.663,0.096,1.298,0.299,1.839c0.196,0.553,0.549,0.965,0.971,1.329
						c0.43,0.358,0.987,0.599,1.561,0.755c0.568,0.186,1.164,0.262,1.721,0.315c0.56,0.051,1.086,0.074,1.558,0.072
						c0.477-0.007,0.892-0.012,1.233-0.016c0.689-0.034,1.095-0.037,1.095-0.037s-0.357,0.176-1.005,0.457
						c-0.329,0.12-0.728,0.278-1.202,0.422c-0.476,0.134-1.02,0.275-1.636,0.375c-0.619,0.075-1.305,0.142-2.063,0.073
						c-0.748-0.074-1.578-0.269-2.377-0.727c-0.801-0.445-1.5-1.213-1.923-2.078c-0.441-0.867-0.629-1.807-0.671-2.708
						c-0.042-0.906,0.052-1.776,0.238-2.636l0.088-0.345l0.041-0.127l0.014-0.034l0.028-0.068l0.057-0.137l0.226-0.545
						c0.157-0.357,0.313-0.71,0.465-1.058c0.356-0.668,0.695-1.316,1.042-1.914c0.384-0.58,0.721-1.138,1.085-1.621
						c0.723-0.971,1.393-1.727,1.908-2.22C291.768,225.013,292.103,224.77,292.103,224.77z"/>
				</g>
			</g>
			<g>
				<path style="fill:#CD8861;" d="M282.397,247.492c0,0,0.396-0.055,1.087-0.121c0.69-0.053,1.678-0.165,2.863-0.235
					c2.37-0.157,5.53-0.262,8.69-0.267c3.16,0.004,6.32,0.107,8.69,0.266c1.186,0.069,2.173,0.183,2.863,0.236
					c0.691,0.066,1.087,0.121,1.087,0.121s-0.396,0.055-1.087,0.121c-0.69,0.054-1.678,0.167-2.863,0.236
					c-2.37,0.158-5.53,0.262-8.69,0.266c-3.16-0.005-6.32-0.109-8.69-0.267c-1.185-0.07-2.173-0.183-2.863-0.235
					C282.793,247.547,282.397,247.492,282.397,247.492z"/>
			</g>
			<path style="fill:#603F30;" d="M328.788,161.677c0,0,10.784,2.121,11.444,19.773c0.76,20.278-1.707,34.787-1.707,34.787
				c-3.42-0.52-4.25,0-4.25,0l-0.894,15.054h-2.235v-16.384c-0.207-10.573-7.892-10.611-7.892-10.611
				c4.523-8.892,0.059-17.587,0.059-17.587c-3.203-7.788-44.763-5.296-44.763-5.296c-15.882,0.312-11.786,19.352-11.786,19.352
				s-4.17-0.098-4.566,4.33c-0.327,3.653-0.609,7.453-0.343,11.115c0,0-9.566-31.688,1.267-47.778c0,0-7.635-18.906,20.472-33.548
				c-2.137,1.113,1.527,7.153,2.362,7.921c5.098,4.693,12.365,3.546,18.674,3.153c1.031-0.065,2.052-0.095,3.057-0.086
				c4.852,0.044,10.402,0.804,14.658,3.291C322.346,149.162,331.33,153.781,328.788,161.677z"/>
			<path style="fill:#603F30;" d="M325.1,247.492c0,0-9.204,12.177-15.246,1.133c0,0-2.175-9.071-15.874-3.946
				c0,0-9.599-4.658-14.127,2.814c0,0-4.605,9.835-8.855,3.66c0,0-5.424-10.55-8.483-23.713
				c1.494,14.353,5.989,31.597,18.399,39.575c0,0,11.618,11.423,25.578,1.415c0,0,20.708-11.171,24.124-19.691
				c0,0,2.475-12.556,2.766-17.448h-2.235C331.147,231.29,329.772,241.03,325.1,247.492z"/>
			<g>
				<g>
					<path style="fill:#FFFFFF;" d="M284.124,247.492h20.866c0,0-0.373,7.71-10.433,8.516
						C294.558,256.008,285.363,256.526,284.124,247.492z"/>
					<g>
						<g>
							<path style="fill:#CD8861;" d="M284.381,248.797c0,0,0.076,0.43,0.344,1.122c0.258,0.692,0.756,1.642,1.586,2.55
								c0.83,0.907,2.022,1.729,3.463,2.227c0.718,0.258,1.496,0.417,2.293,0.541c0.399,0.063,0.807,0.104,1.217,0.129l0.631,0.033
								c0.187,0.009,0.397,0.006,0.6,0.004c1.639-0.018,3.285-0.324,4.719-0.854c1.44-0.531,2.648-1.339,3.514-2.222
								c0.43-0.441,0.799-0.883,1.084-1.307c0.294-0.418,0.512-0.814,0.672-1.149c0.166-0.333,0.29-0.602,0.365-0.788
								c0.08-0.186,0.123-0.285,0.123-0.285s-0.021,0.105-0.059,0.305c-0.039,0.198-0.085,0.496-0.206,0.857
								c-0.106,0.365-0.263,0.805-0.496,1.289c-0.224,0.489-0.532,1.021-0.95,1.547c-0.811,1.069-2.083,2.095-3.633,2.764
								c-1.545,0.688-3.324,1.043-5.115,1.088c-0.227,0.005-0.445,0.001-0.686-0.013l-0.651-0.046
								c-0.441-0.035-0.881-0.088-1.315-0.162c-0.87-0.137-1.713-0.385-2.498-0.705c-1.577-0.637-2.854-1.698-3.627-2.801
								c-0.801-1.098-1.102-2.195-1.262-2.934C284.345,249.233,284.381,248.797,284.381,248.797z"/>
						</g>
					</g>
					<g>
						<g>
							<path style="fill:#D1D3D4;" d="M287.048,251.152c0,0,0.939-0.1,2.347-0.175c0.704-0.025,1.525-0.083,2.405-0.095
								c0.88-0.014,1.818-0.027,2.757-0.042c0.938,0.015,1.877,0.028,2.757,0.041c0.88,0.011,1.701,0.069,2.405,0.095
								c1.408,0.075,2.347,0.176,2.347,0.176s-0.939,0.101-2.347,0.176c-0.704,0.025-1.525,0.084-2.405,0.095
								c-0.88,0.013-1.818,0.026-2.757,0.041c-0.939-0.015-1.877-0.028-2.757-0.042c-0.88-0.012-1.701-0.069-2.405-0.095
								C287.986,251.252,287.048,251.152,287.048,251.152z"/>
						</g>
						<g>
							<path style="fill:#D1D3D4;" d="M291.402,248.797c0,0,0.096,0.327,0.178,0.818c0.079,0.491,0.131,1.145,0.134,1.801
								c-0.002,0.654-0.054,1.309-0.133,1.8c-0.082,0.491-0.179,0.818-0.179,0.818s-0.097-0.327-0.179-0.818
								c-0.079-0.491-0.131-1.146-0.133-1.8c0.003-0.655,0.055-1.31,0.134-1.801C291.307,249.124,291.402,248.797,291.402,248.797z"
								/>
						</g>
						<g>
							<path style="fill:#D1D3D4;" d="M296.465,248.797c0,0,0.096,0.327,0.178,0.818c0.079,0.491,0.131,1.145,0.134,1.801
								c-0.002,0.654-0.054,1.309-0.133,1.8c-0.082,0.491-0.179,0.818-0.179,0.818s-0.097-0.327-0.179-0.818
								c-0.079-0.491-0.131-1.146-0.133-1.8c0.003-0.655,0.055-1.31,0.134-1.801C296.369,249.124,296.465,248.797,296.465,248.797z"
								/>
						</g>
					</g>
				</g>
			</g>
		</g>
		<path style="fill:#6E3C1F;" d="M358.046,425.2c-0.261-2.531-0.612-4.091-0.612-4.091h-49.271l-10.33,4.091H358.046z"/>
	</g>
	<g>
		<polygon style="fill:#3E0D00;" points="79.418,425.2 79.418,389.548 44.59,411.29 44.59,425.2 		"/>
		<polygon style="fill:#3E0D00;" points="418.815,425.2 418.815,389.526 383.99,411.29 383.99,425.2 		"/>
		<rect x="44.59" y="411.29" style="fill:#582100;" width="339.4" height="13.91"/>
		<polygon style="fill:#71300D;" points="79.394,389.548 44.59,411.29 383.99,411.29 418.799,389.548 		"/>
		<rect x="378.737" y="411.29" style="fill:#572000;" width="5.253" height="13.91"/>
		<rect x="44.59" y="411.29" style="fill:#572000;" width="5.254" height="13.91"/>
	</g>
	<g>
		<g>
			<path style="fill:#270A00;" d="M285.853,407.463c-8.832,0-18.307-0.541-28.407-1.627l2.767-25.741
				c42.975,4.617,71.26-1.459,81.802-17.573c12.62-19.295-0.639-51.841-5.568-60.944l-0.047,0.027
				c-5.158-9.316,0.179-15.333,1.936-16.956l15.941-1.27c2.762,1.834,4.123,3.615,7.828,11.886
				c1.771,3.957,4.346,10.243,6.537,17.718c5.834,19.892,6.096,37.446,0.776,52.175c-5.75,15.922-17.589,27.555-35.188,34.578
				C321.336,404.881,305.13,407.463,285.853,407.463z M336.482,301.558c3.215,4.749,10.455,7.427,16.805,3.984
				c6.633-3.6,8.091-11.191,5.735-16.464L336.482,301.558z"/>
		</g>
		<g>
			<path style="fill:#E1956A;" d="M249.467,382.407l-8.345-1.674c0,0-10.933,2.633-12.636,4.05c-1.704,1.416,0.271,3.22,0.271,3.22
				l2.244-0.776l7.537-2.11l5.866,1.163C244.405,386.279,249.46,386.584,249.467,382.407z"/>
			<path style="fill:#F9A374;" d="M245.656,397.407c11.186-2.76,12.398,2.661,12.398,2.661l1.713-15.265
				c-2.711-3.203-10.756-2.486-10.756-2.486l-11.558,0.618c0,0-6.826,4.72-8.264,6.443c-1.438,1.725,0.807,3.114,0.807,3.114
				l2.077-1.201l5.273-4.001l6.549,0.712l-6.826,0.782l-5.102,4.886c-2.662,2.529,0.267,4.033,0.267,4.033l6.246-5.585l9.531,1.496
				c-3.153,0.689-8.426,1.952-8.426,1.952s-0.906,2.473,1.544,2.473L245.656,397.407z"/>
		</g>
		<g>
			<path style="fill:#180500;" d="M343.257,319.614c0,0,0.488,0.943,1.184,2.671c0.692,1.726,1.579,4.241,2.351,7.352
				c0.383,1.556,0.757,3.256,1.021,5.08c0.3,1.818,0.491,3.76,0.591,5.777c0.051,2.018,0.098,4.118-0.139,6.242
				c-0.176,2.128-0.571,4.275-1.087,6.395c-0.318,1.046-0.585,2.107-1.001,3.117l-0.582,1.524c-0.228,0.492-0.458,0.983-0.685,1.473
				c-0.416,0.997-1.022,1.892-1.543,2.81c-0.564,0.895-1.197,1.73-1.791,2.565c-0.678,0.772-1.292,1.575-1.987,2.274
				c-0.723,0.671-1.392,1.366-2.108,1.965c-0.737,0.577-1.438,1.156-2.141,1.678c-0.737,0.47-1.451,0.924-2.135,1.359
				c-0.68,0.438-1.393,0.753-2.039,1.099c-0.658,0.328-1.27,0.659-1.886,0.881c-1.219,0.471-2.248,0.944-3.155,1.181
				c-1.79,0.527-2.809,0.801-2.809,0.801s0.957-0.476,2.621-1.26c0.848-0.358,1.787-0.987,2.914-1.574
				c0.568-0.285,1.122-0.68,1.716-1.073c0.582-0.409,1.243-0.762,1.851-1.249c0.61-0.477,1.246-0.973,1.905-1.486
				c0.614-0.559,1.251-1.137,1.903-1.73c0.637-0.609,1.216-1.307,1.847-1.976c0.593-0.704,1.152-1.46,1.747-2.204
				c0.517-0.803,1.072-1.598,1.56-2.447c0.23-0.433,0.462-0.867,0.695-1.305c0.253-0.427,0.462-0.879,0.66-1.338l0.618-1.373
				l0.521-1.426c0.377-0.941,0.604-1.94,0.896-2.916c0.508-1.977,0.911-3.99,1.104-6.006c0.235-2.01,0.326-4.011,0.341-5.951
				c-0.037-1.939-0.069-3.824-0.241-5.606c-0.152-1.783-0.355-3.469-0.578-5.022c-0.241-1.551-0.475-2.976-0.728-4.231
				c-0.251-1.256-0.484-2.351-0.695-3.25C343.551,320.635,343.257,319.614,343.257,319.614z"/>
		</g>
	</g>
</g>
<g>
	<path style="fill:#2599A3;" d="M138.345,343.959c0,27.678-22.437,50.115-50.115,50.115c-27.679,0-50.114-22.438-50.114-50.115
		c0-27.677,22.436-50.113,50.114-50.113C115.907,293.846,138.345,316.282,138.345,343.959z"/>
	<g>
		<path style="fill:#A7C3D2;" d="M103.108,298.158c5.619,3.371,7.582,9.649,8.149,16.034c0.173,1.951,2.449,2.568,3.586,0.97
			c2.173-3.057,6.313,2.328,7.671,3.73c1.017,0.954,1.885,2.035,2.605,3.242l-1.684,4.536c-0.738-0.948-1.35-1.97-1.836-3.064
			c-1.101-2.2-2.686-6.963-6.044-6.634c-3.649,0.355-7.121,2.139-10.087,4.219c-0.777,0.545-1.841,1.383-2.108,2.357
			c-0.59,2.147,3.893,9.161-2.568,8.995c-1.422-0.036-1.996,1.465-1.489,2.596c2.018,4.511,8.096,6.579,7.979,11.944
			c-0.023,1.028,1.061,1.892,2.06,1.569c1.152-0.372,1.962-0.701,3.076-1.188c1.217-0.62,2.472-1.16,3.76-1.616
			c1.87,0,2.818,0.767,2.847,2.3c-1.506,0.966-2.314,1.467-2.72,3.318c-0.7,3.198-2.101,6.037-2.53,9.371
			c-0.866,6.687-0.814,12.179-5.728,17.423c-0.839,0.896-0.013,2.333,1.187,2.038c2.711-0.665,5.019-2.643,7.793-3.006
			c0.512-0.066,0.979-0.305,1.117-0.85c0.483-1.901,3.992-8.764,6.729-8.534c-0.145,2.166,3.258,2.958,3.89,0.635
			c2.079-7.615,5.915-14.568,8.408-22.021c0.043-0.848,0.064-1.703,0.064-2.563c0-22.451-14.771-41.441-35.119-47.817
			C101.742,296.025,101.228,297.463,103.108,298.158z"/>
		<path style="fill:#A7C3D2;" d="M54.661,312.672c0.441-0.314,0.887-0.589,1.337-0.852c-0.806,2.749-2.04,5.287-1.448,8.262
			c0.599,3.012,3.992,6.172,5.832,8.547c1.125,1.455,2.334,2.805,3.711,4.021c2.071,1.831,0.065,1.837-1.763,3.733
			c-1.434,1.486-2.982,4.054-1.577,6.129c1.931,2.849,1.069,5.542,1.921,8.637c1.007,3.659,7.042,8.694,1.985,12.572
			c-2.285,1.751-0.223,4.637-0.381,6.873c-0.221,3.146,0.473,6.352,1.635,9.31c-0.065,0.83-0.084,1.678-0.049,2.541
			c0.093,2.313,3.662,2.33,3.604,0c-0.225-8.865,5.4-13.561,11.2-19.357c4.306-4.304,9.933-6.43,14.188-10.568
			c2.139-2.079,1.832-5.361-0.072-7.421c-1.143-1.239-3.132-1.904-4.611-2.606c-0.983-0.465-1.942-0.958-2.89-1.492
			c-2.049-1.152,0.281-1.135,1.487-1.65c1.582-0.678,1.179-3.446-0.486-3.721c-5.339-0.886-8.739-5.175-13.754-6.742
			c-1.975-0.617-3.859-0.877-5.915-1.043c-3.78-0.306-4.065-2.053-4-5.631c0.029-1.664-1.763-2.466-3.122-1.791
			c-0.163,0.08-0.323,0.16-0.485,0.24c-2.348-7.528,9.887-8.724,10.06-3.149c0.074,2.396,3.604,2.978,4.228,0.573
			c0.956-3.695,4.401-9.156,9.317-6.133c1.232,0.756,3.043-0.211,2.965-1.702c-0.076-1.438,0.017-2.808,0.137-4.196
			c0.703,0.124,1.404,0.251,2.105,0.41c1.763,0.4,3.105-1.716,1.782-3.063c-1.524-1.55-7.604-3.38-10.009-5.136
			c5.299-0.874,9.717-0.13,15.098-0.69c1.041-0.109,1.689-1.584,1.628-2.395c-3.262-0.667-5.839-0.15-9.298-0.15
			c-12.888,0-24.636,4.868-33.515,12.861c-0.816,0.874-1.628,1.777-2.442,2.709C52.133,311.666,53.374,313.588,54.661,312.672z"/>
		<path style="fill:#FFFFFF;" d="M53.872,311.486c0.44-0.314,0.885-0.588,1.336-0.852c-0.807,2.75-2.041,5.289-1.447,8.263
			c0.597,3.011,3.99,6.17,5.83,8.546c1.127,1.455,2.336,2.805,3.712,4.022c2.071,1.832,0.065,1.836-1.764,3.733
			c-1.434,1.487-2.982,4.054-1.576,6.13c1.931,2.849,1.069,5.541,1.921,8.637c1.005,3.656,7.041,8.693,1.984,12.572
			c-2.284,1.75-0.223,4.636-0.38,6.872c-0.221,3.146,0.474,6.352,1.636,9.311c-0.066,0.83-0.085,1.677-0.051,2.54
			c0.094,2.313,3.663,2.33,3.604,0c-0.225-8.865,5.399-13.561,11.2-19.356c4.307-4.306,9.933-6.431,14.188-10.569
			c2.138-2.079,1.831-5.361-0.071-7.422c-1.145-1.238-3.132-1.903-4.613-2.605c-0.983-0.466-1.941-0.958-2.89-1.492
			c-2.048-1.153,0.281-1.135,1.488-1.651c1.581-0.678,1.178-3.445-0.487-3.722c-5.338-0.884-8.739-5.175-13.752-6.74
			c-1.976-0.617-3.861-0.879-5.917-1.044c-3.778-0.305-4.065-2.053-4-5.631c0.03-1.663-1.762-2.467-3.122-1.792
			c-0.162,0.081-0.323,0.161-0.485,0.241c-2.349-7.528,9.887-8.723,10.059-3.148c0.074,2.393,3.605,2.977,4.229,0.572
			c0.957-3.696,4.401-9.154,9.318-6.134c1.232,0.757,3.043-0.209,2.963-1.701c-0.076-1.439,0.018-2.809,0.138-4.197
			c0.702,0.126,1.404,0.253,2.105,0.411c1.763,0.4,3.106-1.716,1.782-3.064c-1.525-1.55-7.604-3.378-10.009-5.135
			c5.298-0.873,10.598,0.05,15.976-0.512c1.043-0.108,1.61-0.898,1.549-1.707c-3.262-0.668-6.639-1.017-10.098-1.017
			c-12.886,0-24.635,4.868-33.514,12.86c-0.816,0.874-1.63,1.778-2.444,2.71C51.341,310.48,52.583,312.403,53.872,311.486z"/>
		<path style="fill:#FFFFFF;" d="M103.046,297.523c6.525,3.17,8.719,9.859,9.322,16.669c0.173,1.951,2.45,2.568,3.586,0.97
			c2.174-3.057,6.313,2.328,7.671,3.73c1.018,0.954,1.884,2.035,2.605,3.242l-1.683,4.536c-0.739-0.948-1.35-1.97-1.836-3.064
			c-1.102-2.2-2.686-6.963-6.045-6.634c-3.649,0.355-7.121,2.139-10.088,4.219c-0.776,0.545-1.839,1.383-2.105,2.357
			c-0.591,2.147,3.891,9.161-2.57,8.995c-1.422-0.036-1.995,1.465-1.488,2.596c2.019,4.511,8.096,6.579,7.979,11.944
			c-0.022,1.028,1.061,1.892,2.059,1.569c1.153-0.372,1.962-0.701,3.076-1.188c1.218-0.62,2.471-1.16,3.761-1.616
			c1.87,0,2.817,0.767,2.846,2.3c-1.507,0.966-2.313,1.467-2.72,3.318c-0.699,3.198-2.099,6.037-2.531,9.371
			c-0.865,6.687-0.811,12.179-5.726,17.423c-0.839,0.896-0.013,2.333,1.187,2.038c2.71-0.665,5.017-2.643,7.792-3.006
			c0.513-0.066,0.979-0.305,1.118-0.85c0.482-1.901,3.992-8.764,6.728-8.534c-0.145,2.166,3.259,2.958,3.891,0.635
			c2.079-7.615,5.913-14.568,8.408-22.021c0.042-0.848,0.063-1.703,0.063-2.563c0-22.862-15.316-42.135-36.244-48.154
			C102.071,296.499,102.354,297.189,103.046,297.523z"/>
	</g>
</g>
<g>
	<path style="fill:#BCBEC0;" d="M206.977,401.365c0,2.296-0.627,2.394-2.871,2.394H102.884c-2.242,0-3.09-0.098-3.09-2.394v-74.853
		c0-2.295,0.848-3.586,3.09-3.586h101.223c2.244,0,2.871,1.291,2.871,3.586V401.365z"/>
	<path style="fill:#CBCCCE;" d="M204.885,399.882c0,2.206-0.602,2.299-2.758,2.299h-97.272c-2.154,0-2.969-0.093-2.969-2.299V327.95
		c0-2.204,0.815-3.446,2.969-3.446h97.272c2.156,0,2.758,1.242,2.758,3.446V399.882z"/>
	<rect x="104.977" y="328.438" style="fill:#6D6E71;" width="94.884" height="69.808"/>
	<rect x="106.234" y="329.529" style="fill:#249DC3;" width="92.469" height="67.625"/>
	<path style="fill:#56B9D6;" d="M160.289,371.853c-26.798,18.402-54.055,25.302-54.055,25.302v-67.625h92.469
		C198.703,329.529,187.087,353.451,160.289,371.853z"/>
	<path style="fill:#9D9FA2;" d="M205.961,367.408c0,1.451-1.176,2.626-2.627,2.626l0,0c-1.45,0-2.626-1.175-2.626-2.626v-8.132
		c0-1.451,1.176-2.627,2.626-2.627l0,0c1.451,0,2.627,1.176,2.627,2.627V367.408z"/>
	<path style="fill:#C7C8CA;" d="M204.944,366.174c0,1.01-0.721,1.827-1.61,1.827l0,0c-0.889,0-1.609-0.817-1.609-1.827v-5.662
		c0-1.01,0.721-1.829,1.609-1.829l0,0c0.89,0,1.61,0.819,1.61,1.829V366.174z"/>
	<path style="fill:#9D9FA2;" d="M103.112,370.712c0,0.456-0.369,0.826-0.825,0.826l0,0c-0.456,0-0.826-0.37-0.826-0.826v-14.74
		c0-0.457,0.37-0.826,0.826-0.826l0,0c0.456,0,0.825,0.369,0.825,0.826V370.712z"/>
</g>
<g>
	<rect x="165.904" y="322.94" style="fill:#BD6B3C;" width="74.86" height="45.489"/>
	<path style="fill:#F9A45A;" d="M196.256,298.255c-6.22,5.06-30.352,24.685-30.352,24.685h74.86c0,0-25.536-19.947-31.415-24.685
		C203.471,293.517,202.477,293.195,196.256,298.255z"/>
	<g>
		<polygon style="fill:#FFFFFF;" points="230.977,359.365 176.768,359.365 176.768,288.448 218.682,288.448 230.977,302.991 		"/>
		<polygon style="fill:#56B9D6;" points="230.977,302.991 218.682,302.991 218.682,288.448 		"/>
	</g>
	<polygon style="fill:#E7944E;" points="240.765,368.43 165.904,368.43 165.904,322.94 203.335,349.267 240.765,322.94 	"/>
	<path style="fill:#D7C2BF;" d="M210.879,343.96l-4.359,3.428l-8.977-2.195l-1.915-1.233c-7.063,5.815-29.724,24.47-29.724,24.47
		h74.86C240.765,368.43,217.76,349.532,210.879,343.96z"/>
	<path style="fill:#F9A45A;" d="M196.256,346.118c-6.22,4.574-30.352,22.312-30.352,22.312h74.86c0,0-25.536-18.028-31.415-22.312
		C203.471,341.837,202.477,341.548,196.256,346.118z"/>
</g>
<g>
	
		<rect x="148.407" y="372.152" transform="matrix(0.7736 -0.6337 0.6337 0.7736 -203.349 181.7753)" style="fill:#BCBEC0;" width="8.581" height="6.596"/>
	<path style="fill:#EF4645;" d="M153.123,340.663c7.831,9.559,6.429,23.654-3.13,31.484c-9.56,7.83-23.656,6.43-31.486-3.129
		c-7.829-9.559-6.428-23.656,3.132-31.486C131.196,329.702,145.293,331.104,153.123,340.663z"/>
	<path style="fill:#3BBFBF;" d="M148.823,344.186c5.884,7.184,4.831,17.776-2.354,23.661c-7.185,5.884-17.777,4.831-23.661-2.353
		c-5.885-7.183-4.831-17.776,2.353-23.661C132.345,335.949,142.939,337.003,148.823,344.186z"/>
	<path style="fill:#31A3A3;" d="M146.195,365.063c-7.184,5.885-17.776,4.831-23.662-2.353c-1.861-2.272-3.027-4.889-3.524-7.588
		c0.058,3.658,1.302,7.322,3.8,10.372c5.884,7.185,16.476,8.237,23.661,2.353c4.91-4.022,6.955-10.243,5.879-16.073
		C152.429,356.731,150.329,361.678,146.195,365.063z"/>
	
		<rect x="145.251" y="369.601" transform="matrix(0.7736 -0.6337 0.6337 0.7736 -202.2006 179.8638)" style="fill:#EF4645;" width="10.713" height="6.595"/>
	
		<rect x="160.678" y="373.982" transform="matrix(0.7736 -0.6337 0.6337 0.7736 -210.655 193.9283)" style="fill:#334146;" width="10.714" height="35.501"/>
	
		<rect x="161.151" y="375.303" transform="matrix(0.7736 -0.6336 0.6336 0.7736 -211.8296 193.1519)" style="fill:#BCBEC0;" width="6.543" height="35.502"/>
	
		<rect x="161.576" y="376.496" transform="matrix(0.7736 -0.6337 0.6337 0.7736 -212.9328 192.5326)" style="fill:#BCBEC0;" width="2.779" height="35.502"/>
	<path style="fill:#FFFFFF;" d="M144.518,348.34c-0.578,3.634-4.702,5.998-9.211,5.282c-4.51-0.719-7.697-4.244-7.118-7.878
		c0.578-3.633,4.701-5.996,9.21-5.28C141.908,341.183,145.096,344.708,144.518,348.34z"/>
	<path style="fill:#BCBEC0;" d="M180.708,402.66c1.602,1.956,1.315,4.841-0.642,6.443c-1.956,1.603-4.84,1.315-6.442-0.641
		L180.708,402.66z"/>
</g>
</svg>
