<?xml version="1.0" encoding="utf-8"?>
<!-- Generator: Adobe Illustrator 27.5.0, SVG Export Plug-In . SVG Version: 6.00 Build 0)  -->
<svg version="1.1" xmlns="http://www.w3.org/2000/svg" xmlns:xlink="http://www.w3.org/1999/xlink" x="0px" y="0px"
	 viewBox="0 0 500 500" style="enable-background:new 0 0 500 500;" xml:space="preserve">
<g id="BACKGROUND">
	<g>
		<g>
			<rect style="fill:#FDEAD2;" width="500" height="500"/>
		</g>
	</g>
</g>
<g id="OBJECTS">
	<g>
		
			<ellipse transform="matrix(0.7071 -0.7071 0.7071 0.7071 -109.494 253.4182)" style="fill:#FBF7EA;" cx="251.156" cy="258.88" rx="171.004" ry="171.004"/>
		<g>
			<g>
				<path style="fill:#FBA990;" d="M188.578,280.052c-0.681-0.17-3.237,18.228-4.089,28.62c-0.852,10.392,3.918,35.434,3.918,35.434
					s0,3.578,0.681,5.792c0.681,2.215,4.77,5.622,4.77,5.111c0-0.511,2.896-9.88,2.896-9.88l-1.704-3.918l0.682-35.434l4.089-18.569
					L188.578,280.052z"/>
				<path style="fill:#24ADB2;" d="M201.866,256.288c0,0-5.877,6.133-9.199,9.966c-3.322,3.833-8.177,22.487-8.177,22.487
					l14.821,2.3l5.366-20.954L201.866,256.288z"/>
				<g>
					<path style="fill:#FBA990;" d="M247.18,281.756c0,0,9.881,6.474,14.31,4.429c4.429-2.044,3.748-8.518-1.022-13.288
						c-4.77-4.77-10.221-7.836-10.221-7.836L247.18,281.756z"/>
					<g>
						<g>
							<g>
								<path style="fill:#FBA990;" d="M195.503,369.061c0,0,1.725,36.521,1.725,45.492c0,0,3.451,1.725,10.697,0
									c0,0,5.176-32.725,4.831-47.218C207.581,363.885,196.884,360.09,195.503,369.061z"/>
								<path style="fill:#FB8877;" d="M195.902,380.828c3.592,0.93,10.471,2.236,16.344,0.583c0.376-5.728,0.59-10.736,0.51-14.076
									c-0.145-0.096-0.295-0.193-0.448-0.29l-16.793,2.371C195.558,370.646,195.708,374.994,195.902,380.828z"/>
								<g>
									<path style="fill:#3679A5;" d="M193.433,329.724c0,0-0.69,37.267,0.345,43.479c0.345,1.725,20.014,1.035,21.049,0
										c1.035-1.035,2.761-27.951,2.761-27.951s0-0.69,2.761-1.38v-15.873L193.433,329.724z"/>
									<path style="fill:none;stroke:#024470;stroke-width:0.5176;stroke-miterlimit:10;" d="M199.989,337.66
										c0,0-0.345,6.211-6.039,8.109"/>
									<polyline style="fill:none;stroke:#024470;stroke-width:0.5176;stroke-miterlimit:10;" points="217.07,335.762 
										217.415,342.146 219.313,343.526 									"/>
									<path style="fill:none;stroke:#024470;stroke-width:0.5176;stroke-miterlimit:10;" d="M217.933,343.871
										c0,0-3.968-2.933-8.282-5.003"/>
									<path style="fill:none;stroke:#024470;stroke-width:0.5176;stroke-miterlimit:10;" d="M215,346.114
										c0,0-0.69,21.567-2.761,27.26"/>
									<path style="fill:#6A9CBC;" d="M192.398,371.477c0,0,13.458,2.329,23.551,0c0,0,0.259,2.847,0,4.4
										c-0.518,1.812-13.458,2.847-23.551,1.035V371.477z"/>
								</g>
								<path style="fill:#024470;" d="M192.617,432.152h13.993c1.444,0,2.547-1.299,2.318-2.724
									c-0.231-1.443-0.448-2.446-0.097-2.797c0.647-0.647,0.777-2.847,0.129-5.176c-0.647-2.329-0.259-7.635-0.776-7.893
									c-0.518-0.259-1.553,0.647-2.717,0.259c-1.165-0.388-1.812-4.788-6.211-3.753c-4.4,1.035-3.364,4.141-3.364,4.141
									s-0.259,1.812-1.035,5.564c-0.426,2.057-2.873,5.982-4.252,9.384C190.025,430.589,191.072,432.152,192.617,432.152z"/>
								
									<path style="fill:none;stroke:#E86D5E;stroke-width:0.445;stroke-linecap:round;stroke-linejoin:round;stroke-miterlimit:10;" d="
									M198.868,389.334c0,0,3.882-1.553,6.47,1.553"/>
							</g>
							<g>
								<path style="fill:#FBA990;" d="M243.75,369.061c0,0-1.725,36.521-1.725,45.492c0,0-3.451,1.725-10.697,0
									c0,0-5.176-32.725-4.831-47.218C231.672,363.885,242.369,360.09,243.75,369.061z"/>
								<path style="fill:#FB8877;" d="M227.09,382.656c3.324,0.692,9.2,1.205,16.238-1.15c0.201-6.027,0.358-10.59,0.406-11.989
									l-17.203,2.458C226.619,375.035,226.819,378.693,227.09,382.656z"/>
								<g>
									<path style="fill:#3679A5;" d="M245.82,329.724c0,0,0.69,37.267-0.345,43.479c-0.345,1.725-20.014,1.035-21.049,0
										c-1.035-1.035-2.76-27.951-2.76-27.951s0-0.69-2.761-1.38v-15.873L245.82,329.724z"/>
									<path style="fill:none;stroke:#024470;stroke-width:0.5176;stroke-miterlimit:10;" d="M239.264,337.66
										c0,0,0.345,6.211,6.039,8.109"/>
									<polyline style="fill:none;stroke:#024470;stroke-width:0.5176;stroke-miterlimit:10;" points="222.183,335.762 
										221.838,342.146 219.94,343.526 									"/>
									<path style="fill:none;stroke:#024470;stroke-width:0.5176;stroke-miterlimit:10;" d="M221.32,343.871
										c0,0,3.968-2.933,8.282-5.003"/>
									<path style="fill:none;stroke:#024470;stroke-width:0.5176;stroke-miterlimit:10;" d="M224.253,346.114
										c0,0,0.69,21.567,2.76,27.26"/>
									<path style="fill:#6A9CBC;" d="M246.855,371.477c0,0-13.458,2.329-23.551,0c0,0-0.259,2.847,0,4.4
										c0.518,1.812,13.458,2.847,23.551,1.035V371.477z"/>
								</g>
								<path style="fill:#024470;" d="M232.324,432.152h14.316c1.543,0,2.588-1.561,2.009-2.991
									c-1.378-3.404-3.827-7.33-4.253-9.388c-0.776-3.753-1.035-5.564-1.035-5.564s1.035-3.106-3.364-4.141
									c-4.4-1.035-5.047,3.364-6.211,3.753c-1.165,0.388-2.2-0.518-2.717-0.259c-0.518,0.259-0.129,5.564-0.776,7.893
									c-0.647,2.329-0.518,4.529,0.129,5.176c0.377,0.376,0.1,1.503-0.147,3.118C230.082,431.01,231.048,432.152,232.324,432.152z
									"/>
								
									<path style="fill:none;stroke:#E86D5E;stroke-width:0.445;stroke-linecap:round;stroke-linejoin:round;stroke-miterlimit:10;" d="
									M240.385,389.334c0,0-3.882-1.553-6.47,1.553"/>
							</g>
							<path style="fill:#24ADB2;" d="M224.834,248.287c0,0,14.838,6.556,18.289,14.838c3.796,7.936,4.486,62.457,4.486,66.253
								c-1.035,2.415-11.387,6.211-25.88,5.521h-3.796c-14.493,0.69-24.845-3.106-25.88-5.521c0-3.796,0.69-58.317,4.486-66.253
								c3.451-8.282,18.289-14.838,18.289-14.838H224.834z"/>
							<g>
								<path style="fill:#FB8E74;" d="M213.012,234.28c0,0-1.335-2.373-3.115-1.038c-1.78,1.335,1.483,7.416,2.67,5.784
									C213.754,237.395,213.012,234.28,213.012,234.28z"/>
								<path style="fill:#FB8E74;" d="M227.348,235.471c0,0,1.541-2.245,3.195-0.757c1.654,1.488-2.137,7.254-3.174,5.524
									C226.332,238.507,227.348,235.471,227.348,235.471z"/>
								<g>
									<path style="fill:#FB8877;" d="M213.754,241.66l-0.074,10.308c0,0,0.964,3.634,6.452,3.486
										c5.488-0.148,6.007-3.856,6.007-3.856l-0.667-10.975L213.754,241.66z"/>
								</g>
								<path style="fill:#FBA990;" d="M212.634,232.348c0,0-2.728,13.161,6.523,15.011c8.065,0.925,9.369-8.842,9.725-13.88
									c0.356-5.038-1.186-10.487-7.59-10.899C214.887,222.169,212.871,229.366,212.634,232.348z"/>
								<path style="fill:#984E57;" d="M215.555,232.802c0,0,2.517-0.067,3.436,0.29c0.517-0.18-0.507-1.271-1.555-1.415
									S214.715,232.173,215.555,232.802z"/>
								<path style="fill:#984E57;" d="M226.467,233.919c0,0-2.471-0.487-3.436-0.29c-0.48-0.264,0.713-1.168,1.77-1.134
									C225.859,232.528,227.401,233.439,226.467,233.919z"/>
								<path style="fill:none;stroke:#E86D5E;stroke-width:0.3599;stroke-miterlimit:10;" d="M220.227,234.747
									c0,0,0.36,0.315,0.225,1.17c-0.135,0.855-0.81,3.733-0.54,4.093c0.27,0.36,1.035-0.36,1.035-0.36"/>
								<g>
									<path style="fill:#024470;" d="M224.803,235.643c0,0.322-0.261,0.584-0.584,0.584c-0.323,0-0.584-0.262-0.584-0.584
										s0.261-0.584,0.584-0.584C224.542,235.059,224.803,235.32,224.803,235.643z"/>
									<path style="fill:#024470;" d="M217.239,234.92c0,0.322-0.262,0.584-0.584,0.584c-0.323,0-0.584-0.261-0.584-0.584
										c0-0.323,0.261-0.584,0.584-0.584C216.978,234.336,217.239,234.597,217.239,234.92z"/>
								</g>
								<path style="fill:#FBF7EA;" d="M218.63,241.956c0,0,2.225,0.779,4.394-0.278c0,0-0.164,1.764-1.557,2.017
									c-1.393,0.253-2.185-0.127-2.534-0.507C218.584,242.808,218.63,241.956,218.63,241.956z"/>
							</g>
						</g>
						<path style="fill:#984E57;" d="M216.631,227.068c0,0-0.676,4.983-4.138,6.503l-0.169,1.351l-0.507-1.689
							c0,0-2.111-1.605-1.182-5.152c0.929-3.547,4.391-4.56,4.391-4.56s0.422-2.702,5.405-2.956
							c4.983-0.253,10.219,4.138,10.979,8.952c0,0.676-1.605,0.845-1.605,0.845s-0.084,3.885-1.098,5.489
							c0,0-1.436-1.942-1.351-5.32C227.357,230.531,220.347,230.193,216.631,227.068z"/>
						<path style="fill:#024470;" d="M248.717,332.465c0.338-5.405-1.351-39.862-1.351-39.862
							c-8.952-3.547-13.175-15.37-13.175-15.37l-0.507-23.985c-0.507-2.027-3.294-2.28-3.294-2.28l-0.253,14.188
							c-3.403,2.723-8.216,3.614-9.187,3.771c-1.255-0.157-7.418-1.049-10.822-3.771l-0.253-14.188c0,0-2.787,0.253-3.294,2.28
							l-0.507,23.985c0,0-4.223,11.823-13.175,15.37c0,0-1.689,34.457-1.351,39.862c0,0-0.676,28.883-1.182,34.457
							c-0.462,5.087,26.357,3.492,31.047,3.174c4.309,0.318,28.949,1.913,28.486-3.174
							C249.393,361.348,248.717,332.465,248.717,332.465z"/>
						<path style="fill:#007AB5;" d="M225.499,300.12h-9.796c-3.918,0-7.094-3.176-7.094-7.094v-7.432h23.985v7.432
							C232.593,296.944,229.417,300.12,225.499,300.12z"/>
					</g>
					<path style="fill:#24ADB2;" d="M234.702,253.988l21.507,13.756c0,0-3.407,12.606-6.814,16.013c0,0-12.01-4.727-12.01-5.239
						C237.385,278.008,234.19,263.315,234.702,253.988z"/>
					<path style="fill:#FBA990;" d="M257.401,286.185c0,0,6.133,2.044,10.562-2.726c4.429-4.77,9.37-33.219,9.37-33.219
						l-6.133-2.385l-14.48,27.427C256.72,275.283,252.291,282.097,257.401,286.185z"/>
					<path style="fill:#FBA990;" d="M271.2,247.855l-1.022-3.918l0.17-7.496c0,0,1.192,0.341,1.874,0.511
						c0.681,0.17,0.681,3.918,0.681,3.918l2.385-8.518l4.429,1.363v5.281l0.681,1.533c0,0-0.511,4.429-1.022,5.792
						c-0.511,1.363-2.044,3.918-2.044,3.918S272.393,249.9,271.2,247.855z"/>
					<path style="fill:none;stroke:#E86D5E;stroke-width:0.3599;stroke-miterlimit:10;" d="M272.222,236.953
						c0,0,0.596,0.681,0.511,1.278c-0.085,0.596,0.17,2.641,0.17,2.641l1.278,2.215l0.17,1.874"/>
					<path style="fill:none;stroke:#E86D5E;stroke-width:0.3599;stroke-miterlimit:10;" d="M272.904,240.871l2.385-8.518
						c0,0,1.107,0.17,1.192,1.192c0,1.022-1.022,6.559-1.022,6.559"/>
					<path style="fill:none;stroke:#E86D5E;stroke-width:0.3599;stroke-miterlimit:10;" d="M276.055,232.609l1.704,0.511
						c0,0,0.511,0.681,0.426,1.704c-0.085,1.022-0.681,5.536-0.681,5.536"/>
					<polyline style="fill:none;stroke:#E86D5E;stroke-width:0.3599;stroke-miterlimit:10;" points="277.759,233.12 
						279.718,233.716 279.718,238.997 279.462,240.701 					"/>
					<path style="fill:none;stroke:#E86D5E;stroke-width:0.3599;stroke-miterlimit:10;" d="M279.718,238.997
						c0,0,0.767,0.681,0.681,1.533c-0.085,0.852-0.511,3.577-0.511,3.577"/>
					<path style="fill:none;stroke:#E86D5E;stroke-width:0.3599;stroke-miterlimit:10;" d="M258.764,271.535
						c0,0,3.748,2.215,3.578,6.984"/>
				</g>
			</g>
			<g>
				<g>
					<g>
						<rect x="258.495" y="267.134" style="fill:#FBBB90;" width="46.065" height="42.813"/>
						<path style="fill:#FBD9C0;" d="M311.604,317.353h-60.155v-9.574c0-2.594,2.103-4.697,4.697-4.697h50.762
							c2.594,0,4.697,2.103,4.697,4.697V317.353z"/>
						<path style="fill:#FBD9C0;" d="M308.895,280.682h-54.736v-8.671c0-2.694,2.184-4.877,4.878-4.877h44.981
							c2.694,0,4.878,2.184,4.878,4.877V280.682z"/>
					</g>
					<g>
						<rect x="341.467" y="189.061" style="fill:#FBD9C0;" width="34.717" height="93.735"/>
						<rect x="331.052" y="262.93" style="fill:#FBBB90;" width="12.151" height="4.05"/>
						<rect x="331.052" y="219.245" style="fill:#FBBB90;" width="12.151" height="4.05"/>
						<g>
							<g>
								<g>
									<rect x="364.708" y="426.87" style="fill:#FF8D68;" width="5.015" height="6.943"/>
									<rect x="379.752" y="426.87" style="fill:#FF8D68;" width="5.015" height="6.943"/>
									<rect x="325.749" y="426.87" style="fill:#FF8D68;" width="5.015" height="6.943"/>
									<rect x="340.792" y="426.87" style="fill:#FF8D68;" width="5.015" height="6.943"/>
								</g>
							</g>
							<g>
								<g>
									<rect x="364.708" y="415.298" style="fill:#FF8D68;" width="5.015" height="6.943"/>
									<rect x="379.752" y="415.298" style="fill:#FF8D68;" width="5.015" height="6.943"/>
									<rect x="325.749" y="415.298" style="fill:#FF8D68;" width="5.015" height="6.943"/>
									<rect x="340.792" y="415.298" style="fill:#FF8D68;" width="5.015" height="6.943"/>
								</g>
							</g>
							<g>
								<rect x="321.698" y="421.47" style="fill:#FBBB90;" width="67.119" height="7.522"/>
								<rect x="321.698" y="409.898" style="fill:#FBBB90;" width="67.119" height="7.522"/>
							</g>
						</g>
						<g>
							<rect x="104.236" y="385.017" style="fill:#FF8D68;" width="71.748" height="48.604"/>
							<rect x="119.859" y="385.017" style="fill:#FBBB90;" width="13.887" height="17.937"/>
							<rect x="146.202" y="385.017" style="fill:#E86D5E;" width="29.782" height="48.604"/>
							<rect x="127.96" y="419.156" style="fill:#FBBB90;" width="13.308" height="4.05"/>
						</g>
						<g>
							<g>
								<g>
									<g>
										
											<rect x="185.706" y="202.678" transform="matrix(0.7071 0.7071 -0.7071 0.7071 214.8658 -67.2201)" style="fill:#FBA584;" width="5.737" height="46.156"/>
										<g>
											<rect x="163.292" y="192.817" style="fill:#464F6A;" width="12.505" height="141.303"/>
											<rect x="161.206" y="192.817" style="fill:#FBA584;" width="17.191" height="35.611"/>
										</g>
									</g>
									<g>
										
											<rect x="305.765" y="202.678" transform="matrix(-0.7071 0.7071 -0.7071 -0.7071 686.5038 167.1477)" style="fill:#FBA584;" width="5.737" height="46.156"/>
										<g>
											
												<rect x="321.412" y="192.817" transform="matrix(-1 -1.224647e-16 1.224647e-16 -1 655.3284 526.9376)" style="fill:#464F6A;" width="12.505" height="141.303"/>
											
												<rect x="318.812" y="192.817" transform="matrix(-1 -1.224647e-16 1.224647e-16 -1 654.8147 421.2461)" style="fill:#FBA584;" width="17.191" height="35.611"/>
										</g>
									</g>
								</g>
								<g>
									<g>
										<g>
											<path style="fill:#FBBB90;" d="M165.283,202.861l-23.749-1.294l6.799-32.813c0-4.731,3.835-8.566,8.566-8.566h8.384
												V202.861z"/>
											<path style="fill:#FBBB90;" d="M355.731,202.861h-23.806v-42.673h8.384c4.731,0,8.566,3.835,8.566,8.566L355.731,202.861
												z"/>
											<rect x="165.283" y="160.188" style="fill:#FF8D68;" width="23.806" height="42.673"/>
										</g>
										<g>
											<rect x="189.089" y="160.188" style="fill:#FBBB90;" width="23.806" height="42.673"/>
											<rect x="212.895" y="160.188" style="fill:#FF8D68;" width="23.806" height="42.673"/>
										</g>
										<g>
											<rect x="236.701" y="160.188" style="fill:#FBBB90;" width="23.806" height="42.673"/>
											<rect x="260.507" y="160.188" style="fill:#FF8D68;" width="23.806" height="42.673"/>
										</g>
										<g>
											<rect x="284.313" y="160.188" style="fill:#FBBB90;" width="23.806" height="42.673"/>
											<rect x="308.119" y="160.188" style="fill:#FF8D68;" width="23.806" height="42.673"/>
										</g>
									</g>
									<g>
										<g>
											<path style="fill:#FF8D68;" d="M153.38,217.322L153.38,217.322c-6.574,0-11.903-5.329-11.903-11.903v-3.894h23.806v3.894
												C165.283,211.993,159.954,217.322,153.38,217.322z"/>
											<path style="fill:#FF8D68;" d="M343.828,217.322L343.828,217.322c-6.574,0-11.903-5.329-11.903-11.903v-3.894h23.806
												v3.894C355.731,211.993,350.402,217.322,343.828,217.322z"/>
											<path style="fill:#E86D5E;" d="M177.186,217.322L177.186,217.322c-6.574,0-11.903-5.329-11.903-11.903v-3.894h23.806
												v3.894C189.089,211.993,183.76,217.322,177.186,217.322z"/>
										</g>
										<g>
											<path style="fill:#FF8D68;" d="M200.992,217.322L200.992,217.322c-6.574,0-11.903-5.329-11.903-11.903v-3.894h23.806
												v3.894C212.895,211.993,207.566,217.322,200.992,217.322z"/>
											<path style="fill:#E86D5E;" d="M224.798,217.322L224.798,217.322c-6.574,0-11.903-5.329-11.903-11.903v-3.894h23.806
												v3.894C236.701,211.993,231.372,217.322,224.798,217.322z"/>
										</g>
										<g>
											<path style="fill:#FF8D68;" d="M248.604,217.322L248.604,217.322c-6.574,0-11.903-5.329-11.903-11.903v-3.894h23.806
												v3.894C260.507,211.993,255.178,217.322,248.604,217.322z"/>
											<path style="fill:#E86D5E;" d="M272.41,217.322L272.41,217.322c-6.574,0-11.903-5.329-11.903-11.903v-3.894h23.806v3.894
												C284.313,211.993,278.984,217.322,272.41,217.322z"/>
										</g>
										<g>
											<path style="fill:#FF8D68;" d="M296.216,217.322L296.216,217.322c-6.574,0-11.903-5.329-11.903-11.903v-3.894h23.806
												v3.894C308.119,211.993,302.79,217.322,296.216,217.322z"/>
											<path style="fill:#E86D5E;" d="M320.022,217.322L320.022,217.322c-6.574,0-11.903-5.329-11.903-11.903v-3.894h23.806
												v3.894C331.925,211.993,326.596,217.322,320.022,217.322z"/>
										</g>
									</g>
								</g>
								<g>
									<rect x="160.264" y="322.548" style="fill:#FBBB90;" width="176.681" height="18.54"/>
									<rect x="160.264" y="341.088" style="fill:#FBD9C0;" width="176.681" height="18.54"/>
									<rect x="160.264" y="396.733" style="fill:#FBD9C0;" width="176.681" height="18.54"/>
									<rect x="160.264" y="415.274" style="fill:#FAAE7F;" width="176.681" height="18.54"/>
									<rect x="160.264" y="378.011" style="fill:#FBBB90;" width="176.681" height="18.54"/>
									<rect x="160.264" y="359.653" style="fill:#FAAE7F;" width="176.681" height="18.54"/>
									<g>
										<rect x="159.992" y="339.939" style="fill:#D49375;" width="176.681" height="1.149"/>
										<rect x="159.992" y="359.054" style="fill:#D49375;" width="176.681" height="1.15"/>
										<rect x="159.992" y="359.078" style="fill:#D49375;" width="176.681" height="1.15"/>
										<rect x="159.992" y="376.861" style="fill:#D49375;" width="176.681" height="1.15"/>
										<rect x="159.992" y="395.976" style="fill:#D49375;" width="176.681" height="1.149"/>
										<rect x="159.992" y="414.699" style="fill:#D49375;" width="176.681" height="1.15"/>
									</g>
								</g>
							</g>
							<rect x="147.237" y="316.496" style="fill:#FBD9C0;" width="202.735" height="9.696"/>
							<g>
								
									<rect x="271.938" y="336.8" transform="matrix(-1.836970e-16 1 -1 -1.836970e-16 694.5649 53.8685)" style="fill:#FBF7EA;" width="96.82" height="74.834"/>
								<rect x="287.56" y="330.435" style="fill:#464F6A;" width="65.576" height="87.563"/>
								
									<text transform="matrix(1 0 0 1 296.5944 381.7025)" style="fill:#FBF7EA; font-family:'Roboto-Bold'; font-size:17.7765px;">OPEN</text>
								
									<text transform="matrix(1 0 0 1 298.9362 362.6253)" style="fill:#FBF7EA; font-family:'Nickainley-Normal'; font-size:14.1721px;">We Are</text>
								<g>
									<rect x="290.743" y="420.506" style="fill:#FBF7EA;" width="5.979" height="13.308"/>
									<rect x="343.975" y="420.506" style="fill:#FBF7EA;" width="5.979" height="13.308"/>
								</g>
							</g>
						</g>
						<g>
							<g>
								<g>
									<g>
										<polygon style="fill:#FBF7EA;" points="220.248,363.199 226.613,433.79 230.085,433.79 227.192,363.199 										"/>
									</g>
									<g>
										<polygon style="fill:#FBF7EA;" points="194.211,363.199 187.846,433.79 184.374,433.79 187.267,363.199 										"/>
									</g>
								</g>
							</g>
							<path style="fill:#E86D5E;" d="M231.82,366.092h-49.182c-3.196,0-5.786-2.591-5.786-5.786l0,0
								c0-3.196,2.591-5.786,5.786-5.786h49.182c3.196,0,5.786,2.59,5.786,5.786l0,0
								C237.607,363.501,235.016,366.092,231.82,366.092z"/>
						</g>
					</g>
					<g>
						<g>
							<circle style="fill:#E86D5E;" cx="404.818" cy="336.682" r="33.6"/>
							<circle style="fill:#FBF7EA;" cx="404.818" cy="336.682" r="24.929"/>
							<circle style="fill:#E86D5E;" cx="404.818" cy="336.682" r="15.536"/>
							<path style="fill:#FBF7EA;" d="M410.96,336.682c0,3.392-2.75,6.142-6.142,6.142c-3.392,0-6.142-2.75-6.142-6.142
								c0-3.392,2.75-6.142,6.142-6.142C408.21,330.54,410.96,333.29,410.96,336.682z"/>
						</g>
						<path style="opacity:0.33;fill:#464F6A;" d="M425.406,363.226l-20.082-26.832c-0.359-0.476-1.037-0.578-1.518-0.218
							c-0.478,0.359-0.577,1.038-0.218,1.518l20.068,26.813C424.255,364.101,424.835,363.67,425.406,363.226z"/>
						<g>
							<path style="fill:#464F6A;" d="M446.095,338.218h-41.458c-0.599,0-1.084-0.485-1.084-1.084c0-0.599,0.485-1.084,1.084-1.084
								h41.458c0.599,0,1.084,0.485,1.084,1.084C447.179,337.733,446.694,338.218,446.095,338.218z"/>
							<g>
								<polygon style="fill:#E86D5E;" points="454.36,334.018 443.521,334.018 440.495,337.043 440.405,337.043 440.45,337.089 
									440.405,337.134 440.495,337.134 443.521,340.16 454.36,340.16 451.289,337.089 								"/>
							</g>
						</g>
					</g>
					<g>
						<g>
							<rect x="59.951" y="307.967" style="fill:#E86D5E;" width="15.717" height="17.411"/>
							<rect x="84.275" y="288.647" style="fill:#F7BD63;" width="15.717" height="36.731"/>
							<rect x="108.6" y="281.969" style="fill:#6E8D51;" width="15.717" height="43.409"/>
						</g>
						<rect x="59.152" y="329.46" style="fill:#FBBB90;" width="65.665" height="2.399"/>
					</g>
					<g>
						<g>
							<g>
								<rect x="66.829" y="202.847" style="fill:#F7BD63;" width="38.372" height="9.977"/>
								<rect x="66.829" y="210.041" style="fill:#ED914A;" width="38.372" height="2.782"/>
							</g>
							<g>
								<rect x="66.829" y="193.637" style="fill:#F7BD63;" width="38.372" height="9.977"/>
								<rect x="66.829" y="200.832" style="fill:#ED914A;" width="38.372" height="2.782"/>
							</g>
							<g>
								<rect x="66.829" y="212.631" style="fill:#F7BD63;" width="38.372" height="9.977"/>
								<rect x="66.829" y="219.826" style="fill:#ED914A;" width="38.372" height="2.782"/>
							</g>
							<g>
								<rect x="66.829" y="222.416" style="fill:#F7BD63;" width="38.372" height="9.977"/>
								<rect x="66.829" y="229.611" style="fill:#ED914A;" width="38.372" height="2.782"/>
							</g>
							<g>
								<rect x="66.829" y="232.201" style="fill:#F7BD63;" width="38.372" height="9.977"/>
								<rect x="66.829" y="239.396" style="fill:#ED914A;" width="38.372" height="2.782"/>
							</g>
						</g>
						
							<ellipse transform="matrix(0.2282 -0.9736 0.9736 0.2282 -137.9752 279.1159)" style="fill:#F7BD63;" cx="107.071" cy="226.589" rx="15.397" ry="15.397"/>
						
							<ellipse transform="matrix(0.2186 -0.9758 0.9758 0.2186 -137.4439 281.5361)" style="fill:#FFDB9B;" cx="107.071" cy="226.589" rx="10.216" ry="10.216"/>
						<g>
							<path style="fill:#F7BD63;" d="M108.406,228.731c0-0.364-0.105-0.661-0.314-0.89c-0.209-0.229-0.568-0.443-1.076-0.641
								c-0.998-0.364-1.739-0.77-2.222-1.217c-0.483-0.447-0.725-1.078-0.725-1.892c0-0.755,0.242-1.375,0.725-1.858
								c0.483-0.483,1.134-0.768,1.953-0.853v-1.45h1.072v1.464c0.791,0.117,1.413,0.447,1.865,0.992
								c0.452,0.544,0.673,1.25,0.664,2.118l-0.02,0.034h-1.922c0-0.531-0.109-0.94-0.327-1.228
								c-0.218-0.288-0.516-0.432-0.894-0.432c-0.387,0-0.674,0.111-0.863,0.334c-0.189,0.223-0.283,0.518-0.283,0.887
								c0,0.351,0.1,0.635,0.3,0.853c0.2,0.218,0.568,0.433,1.103,0.644c0.994,0.391,1.73,0.81,2.209,1.255
								c0.479,0.445,0.718,1.068,0.718,1.868c0,0.782-0.241,1.408-0.722,1.875c-0.481,0.468-1.135,0.744-1.963,0.83v1.336h-1.072
								v-1.329c-0.841-0.085-1.536-0.383-2.084-0.894c-0.549-0.51-0.814-1.26-0.796-2.249l0.014-0.034h1.922
								c0,0.602,0.138,1.034,0.415,1.295c0.276,0.261,0.628,0.391,1.056,0.391c0.409,0,0.723-0.109,0.941-0.327
								S108.406,229.099,108.406,228.731z"/>
						</g>
					</g>
					<g>
						<circle style="fill:#6E8D51;" cx="162.752" cy="112.501" r="26.374"/>
						<circle style="fill:#6E8D51;" cx="128.429" cy="121.894" r="4.697"/>
						<text transform="matrix(1 0 0 1 150.5026 125.7322)" style="fill:#FBF7EA; font-family:'Roboto-Bold'; font-size:35.409px;">%</text>
					</g>
					<g>
						<polygon style="fill:#E86D5E;" points="303.693,106.286 298.094,131.83 287.247,131.83 293.195,104.886 						"/>
						<g>
							<polygon style="fill:#FFFFFF;" points="337.284,103.487 326.437,106.286 326.437,90.54 337.284,93.339 							"/>
							<g>
								<polygon style="fill:#F7BD63;" points="327.177,98.471 327.37,94.672 326.984,94.672 326.17,78.676 282.981,93.872 
									276.983,93.872 276.983,94.672 276.983,102.27 276.983,103.07 282.981,103.07 326.17,118.266 326.984,102.27 327.37,102.27 
																	"/>
								<path style="fill:#E86D5E;" d="M327.487,123.898L327.487,123.898c-1.997,0-3.616-1.619-3.616-3.616V76.194
									c0-1.997,1.619-3.616,3.616-3.616l0,0c1.997,0,3.616,1.619,3.616,3.616v44.089
									C331.102,122.28,329.484,123.898,327.487,123.898z"/>
							</g>
						</g>
					</g>
					<polygon style="fill:#FBD9C0;" points="204.301,318.076 188.584,318.076 186.417,295.314 206.468,295.314 					"/>
					<polygon style="fill:#FBD9C0;" points="230.314,318.076 214.598,318.076 212.43,295.314 232.481,295.314 					"/>
					<g>
						<g>
							<path style="fill:#464F6A;" d="M424.395,179.892h-25.133c-2.353,0-4.268,1.915-4.268,4.268v56.115
								c0,2.268,1.778,4.127,4.013,4.26h14.164v0.008h11.225c2.353,0,4.268-1.915,4.268-4.268V184.16
								C428.663,181.807,426.748,179.892,424.395,179.892z"/>
							<path style="fill:#FF8D68;" d="M424.395,180.84h-4.088l-0.744,1.316c-0.391,0.692-1.124,1.119-1.919,1.119h-3.122h-5.388
								h-3.122c-0.795,0-1.528-0.428-1.919-1.119l-0.744-1.316h-4.088c-1.833,0-3.319,1.486-3.319,3.32v56.115
								c0,1.833,1.486,3.319,3.319,3.319h25.133c1.833,0,3.319-1.486,3.319-3.319V184.16
								C427.715,182.327,426.229,180.84,424.395,180.84z"/>
							<path style="fill:#FBD9C0;" d="M415.787,182.026h-7.824c-0.175,0-0.316-0.142-0.316-0.316l0,0
								c0-0.175,0.142-0.316,0.316-0.316h7.824c0.175,0,0.316,0.142,0.316,0.316l0,0
								C416.103,181.884,415.961,182.026,415.787,182.026z"/>
						</g>
						<path style="fill:#FBF7EA;" d="M422.804,223.472h-22.047c-0.852,0-1.542-0.69-1.542-1.542v-24.36
							c0-0.851,0.69-1.542,1.542-1.542h22.047c0.852,0,1.542,0.69,1.542,1.542v24.36
							C424.346,222.782,423.656,223.472,422.804,223.472z"/>
						<rect x="399.678" y="225.63" style="fill:#FBF7EA;" width="11.563" height="1.542"/>
						<rect x="399.678" y="228.984" style="fill:#FBF7EA;" width="23.974" height="1.542"/>
						<polyline style="fill:none;stroke:#6E8D51;stroke-width:4.6253;stroke-miterlimit:10;" points="404.612,207.9 
							410.162,213.451 420.492,203.121 						"/>
					</g>
				</g>
			</g>
		</g>
	</g>
</g>
</svg>
